<svg xmlns="http://www.w3.org/2000/svg" xmlns:xlink="http://www.w3.org/1999/xlink" version="1.1" width="105.28125" height="138.01374" viewBox="0,0,105.28125,138.01374"><g><g data-paper-data="{&quot;isPaintingLayer&quot;:true}" fill-rule="nonzero" stroke-linejoin="miter" stroke-miterlimit="10" stroke-dasharray="" stroke-dashoffset="0" style="mix-blend-mode: normal"><path d="M282.5,104.45192c0,20.73723 -14.10303,37.54808 -31.5,37.54808c-17.39697,0 -31.5,-16.81085 -31.5,-37.54808c0,-20.73723 14.10303,-37.54808 31.5,-37.54808c17.39697,0 31.5,16.81085 31.5,37.54808z" fill="#ff00e4" stroke="none" stroke-width="0" stroke-linecap="butt" transform="matrix(1,0,0,1,-200.25,-35.25)"/><path d="M 13.25 69.75 L 86.25 69.75 L 56.25 136.75 L 44.25 137.75 Z " fill="#becc82" stroke="#000000" stroke-width="0.5" stroke-linecap="round"/><path d="M 21.25 90.75 L 40.25 68.75 " fill="none" stroke="#000000" stroke-width="0.5" stroke-linecap="round"/><path d="M 56.25 136.75 L 31.25 108.75 L 72.25 70.75 " fill="none" stroke="#000000" stroke-width="0.5" stroke-linecap="round"/><path d="M 39.25 124.75 L 73.25 100.75 " fill="none" stroke="#000000" stroke-width="0.5" stroke-linecap="round"/><path d="M 21.25 69.75 L 65.25 114.75 " fill="none" stroke="#000000" stroke-width="0.5" stroke-linecap="round"/><path d="M 46.25 70.75 L 77.25 90.75 " fill="none" stroke="#000000" stroke-width="0.5" stroke-linecap="round"/><path d="M 20.75 80.75 C 20.75 80.6274 20.7588 80.507 20.7759 80.3891 L 19.75 78.75 C 19.75 75.75 19.75 72.75 19.75 69.75 C 19.75 69.75 19.75 67.25 22.25 67.25 C 23.3326 67.25 23.9464 67.7188 24.2944 68.2504 C 24.8906 68.2608 25.4359 68.4798 25.8604 68.8377 C 26.0244 68.4039 26.3564 67.9707 26.9638 67.6063 C 27.9237 67.0303 28.7118 67.1421 29.2893 67.4412 C 29.5851 67.318 29.9096 67.25 30.25 67.25 C 30.6031 67.25 30.9391 67.3232 31.2437 67.4553 C 31.7777 67.25 32.25 67.25 32.25 67.25 C 34.5053 67.2657 36.7108 66.5802 38.9445 66.2687 C 43.8307 65.5874 49.311 66.25 54.25 66.25 C 59.25 66.25 64.25 66.25 69.25 66.25 C 72.25 66.25 75.25 66.25 78.25 66.25 C 79.25 66.25 80.25 66.25 81.25 66.25 L 82.25 66.25 C 82.25 66.25 84.75 66.25 84.75 68.75 C 84.75 71.25 82.25 71.25 82.25 71.25 C 81.7529 71.25 81.2528 71.25 80.75 71.25 C 80.75 74.75 80.75 78.25 80.75 81.75 L 80.75 82.75 C 80.75 82.75 80.75 85.25 78.25 85.25 C 75.75 85.25 75.75 82.75 75.75 82.75 C 75.75 79.2199 75.75 75.0261 75.75 71.25 C 74.4254 71.25 73.0901 71.25 71.75 71.25 C 71.75 77.4167 71.75 83.5833 71.75 89.75 L 71.75 90.75 C 71.75 90.75 71.75 93.25 69.25 93.25 C 66.75 93.25 66.75 90.75 66.75 90.75 C 66.75 84.5707 66.75 77.6121 66.75 71.25 C 64.049 71.25 61.3565 71.25 58.7186 71.25 C 59.0196 72.1531 59.3207 73.0563 59.6217 73.9594 L 59.75 75.75 C 59.75 75.75 59.75 78.25 57.25 78.25 C 54.75 78.25 54.75 75.75 54.75 75.75 L 54.8783 75.5406 C 54.545 74.5406 54.2116 73.5406 53.8783 72.5406 C 53.8783 72.5406 53.6791 71.943 53.7806 71.2478 C 52.1527 71.2327 50.4583 71.1435 48.7487 71.0638 C 48.7228 74.3671 48.3088 78.1385 48.7177 81.3496 C 48.8509 82.3952 49.5499 83.3089 49.7177 84.3496 C 50.1105 86.7849 49.75 89.2832 49.75 91.75 L 49.75 94.75 C 49.75 94.75 49.75 97.25 47.25 97.25 C 44.75 97.25 44.75 94.75 44.75 94.75 L 44.75 91.75 C 44.75 89.5501 45.1569 87.3182 44.7823 85.1505 C 44.6028 84.1118 43.9108 83.1967 43.7823 82.1505 C 43.3908 78.965 43.6679 75.3482 43.736 72.0163 C 43.603 73.2718 42.5407 74.25 41.25 74.25 C 39.8693 74.25 38.75 73.1307 38.75 71.75 C 38.75 71.6151 38.7607 71.4827 38.7812 71.3536 C 38.3925 71.4189 38.0041 71.4891 37.6157 71.5605 C 37.279 72.5434 36.347 73.25 35.25 73.25 C 34.4157 73.25 33.6769 72.8414 33.2228 72.2134 C 32.9503 72.2318 32.6774 72.2439 32.404 72.2483 C 33.0003 73.5728 33.4751 74.9422 33.7195 76.3608 L 33.75 78.75 C 33.75 78.75 33.75 81.25 31.25 81.25 C 28.75 81.25 28.75 78.75 28.75 78.75 L 28.7805 77.1392 C 28.5168 75.2133 27.5563 73.4337 26.5417 71.7505 C 26.2203 72.4857 25.5555 73.0365 24.75 73.2 C 24.75 75.0499 24.75 76.8999 24.75 78.7498 C 24.75 78.7498 24.75 78.7499 24.75 78.7499 L 25.0177 77.9823 C 25.0177 77.9823 26.1013 79.0658 25.7234 80.3845 C 25.7409 80.5038 25.75 80.6258 25.75 80.75 C 25.75 81.1085 25.6745 81.4494 25.5386 81.7576 C 25.5956 81.8811 25.6217 81.9594 25.6217 81.9594 C 26.3275 84.1427 26.7282 86.4556 26.75 88.75 L 27.4861 89.632 C 27.4861 89.632 28.6041 91.868 26.368 92.9861 C 24.1319 94.1041 23.0139 91.868 23.0139 91.868 L 21.75 88.75 C 21.7719 86.9895 21.4545 85.2042 20.8783 83.5406 C 20.8783 83.5406 20.5606 82.5876 20.9321 81.6885 C 20.8147 81.3987 20.75 81.0819 20.75 80.75 Z M 43.615 70.9374 C 43.6841 71.1386 43.7283 71.3514 43.7438 71.5721 C 43.7469 71.3586 43.7489 71.1464 43.7497 70.9357 C 43.7047 70.9362 43.6598 70.9368 43.615 70.9374 Z " fill="#ff00e4" stroke="none" stroke-width="0.5" stroke-linecap="butt"/><text transform="matrix(0.5,0,0,0.5,0.25,21.75)" font-size="40" xml:space="preserve" fill="#00fff9" fill-rule="nonzero" stroke="none" stroke-width="1" stroke-linecap="butt" stroke-linejoin="miter" stroke-miterlimit="10" stroke-dasharray="" stroke-dashoffset="0" font-family="Sans Serif" font-weight="normal" text-anchor="start" style="mix-blend-mode: normal"><tspan x="0" dy="0">nice cream</tspan></text><path d="M 30.75 47.75 C 30.75 46.3693 31.8693 45.25 33.25 45.25 C 34.6307 45.25 35.75 46.3693 35.75 47.75 C 35.75 49.1307 34.6307 50.25 33.25 50.25 C 31.8693 50.25 30.75 49.1307 30.75 47.75 Z " fill="#00fff9" stroke="none" stroke-width="0.5" stroke-linecap="butt"/><path d="M 44.75 46.75 C 44.75 45.3693 45.8693 44.25 47.25 44.25 C 48.6307 44.25 49.75 45.3693 49.75 46.75 C 49.75 48.1307 48.6307 49.25 47.25 49.25 C 45.8693 49.25 44.75 48.1307 44.75 46.75 Z " fill="#00fff9" stroke="none" stroke-width="0.5" stroke-linecap="butt"/><path d="M 53.0178 57.9822 C 54.7855 59.75 53.0178 61.5178 53.0178 61.5178 L 50.2067 64.0597 C 49.1044 64.1127 44.148 64.4271 42.8496 64.2177 C 41.8089 64.0499 40.8883 63.3972 39.8496 63.2177 C 37.1428 62.7499 34.0008 63.3872 31.25 63.25 C 29.093 63.1424 26.6705 63.8369 24.7882 62.7781 C 23.4379 62.0185 23.5149 59.9531 22.8783 58.5406 C 22.8783 58.5406 22.0877 56.1688 24.4594 55.3783 C 26.8312 54.5877 27.6217 56.9594 27.6217 56.9594 C 27.6517 57.5469 27.1576 58.5247 27.7118 58.7219 C 29.7705 59.4542 32.0649 58.25 34.25 58.25 C 39.1057 58.25 43.5085 58.9947 48.2933 59.4403 L 49.4822 57.9822 C 49.4822 57.9822 51.25 56.2144 53.0178 57.9822 Z " fill="#00fff9" stroke="none" stroke-width="0.5" stroke-linecap="butt"/></g></g></svg>