<svg version="1.1" xmlns="http://www.w3.org/2000/svg" xmlns:xlink="http://www.w3.org/1999/xlink" width="593.5" height="372.5" viewBox="0,0,593.5,372.5"><g transform="translate(16.75,4.25)"><g data-paper-data="{&quot;isPaintingLayer&quot;:true}" fill-rule="nonzero" stroke-linejoin="miter" stroke-miterlimit="10" stroke-dasharray="" stroke-dashoffset="0" style="mix-blend-mode: normal"><path d="M-16.5,368v-372h593v372z" fill="#000000" stroke="#000000" stroke-width="0.5" stroke-linecap="butt"/><text transform="translate(148.69443,134.43402) scale(1.09924,1.36674)" font-size="40" xml:space="preserve" fill="#ff0000" fill-rule="nonzero" stroke="none" stroke-width="1" stroke-linecap="butt" stroke-linejoin="miter" stroke-miterlimit="10" stroke-dasharray="" stroke-dashoffset="0" font-family="Marker" font-weight="normal" text-anchor="start" style="mix-blend-mode: normal"><tspan x="0" dy="0">NITEMARE</tspan><tspan x="0" dy="46.150000000000006px">   SANS</tspan></text><text transform="translate(202.69443,225.43402) scale(0.5,0.5)" font-size="40" xml:space="preserve" fill="#ff0000" fill-rule="nonzero" stroke="none" stroke-width="1" stroke-linecap="butt" stroke-linejoin="miter" stroke-miterlimit="10" stroke-dasharray="" stroke-dashoffset="0" font-family="Marker" font-weight="normal" text-anchor="start" style="mix-blend-mode: normal"><tspan x="0" dy="0">IS COMING</tspan></text><text transform="translate(232.69443,241.18402) scale(0.34832,0.34832)" font-size="40" xml:space="preserve" fill="#ff0000" fill-rule="nonzero" stroke="none" stroke-width="1" stroke-linecap="butt" stroke-linejoin="miter" stroke-miterlimit="10" stroke-dasharray="" stroke-dashoffset="0" font-family="Marker" font-weight="normal" text-anchor="start" style="mix-blend-mode: normal"><tspan x="0" dy="0">SOON</tspan></text><path d="M66.69443,177.43402l13,37l13,-34l14,31l12,-29l11,38l9,-37l12,61l-16,-30l-11,26l-10,-36l-7,34l-11,-28l-15,25z" fill="none" stroke="#ff0000" stroke-width="1.5" stroke-linecap="round"/><path d="M54.69443,130.43402c0,-13.80712 11.19288,-25 25,-25c13.80712,0 25,11.19288 25,25c0,13.80712 -11.19288,25 -25,25c-13.80712,0 -25,-11.19288 -25,-25z" fill="#ff0000" stroke="none" stroke-width="0.5" stroke-linecap="butt"/><path d="M111.69443,128.43402c0,-13.80712 11.19288,-25 25,-25c13.80712,0 25,11.19288 25,25c0,13.80712 -11.19288,25 -25,25c-13.80712,0 -25,-11.19288 -25,-25z" fill="#ff0000" stroke="none" stroke-width="0.5" stroke-linecap="butt"/><path d="M117.94443,130.43402c0,-10.35534 8.39466,-18.75 18.75,-18.75c10.35534,0 18.75,8.39466 18.75,18.75c0,10.35534 -8.39466,18.75 -18.75,18.75c-10.35534,0 -18.75,-8.39466 -18.75,-18.75z" fill="#000000" stroke="none" stroke-width="0.5" stroke-linecap="butt"/><path d="M128.69443,149.43402l8,-14l9,12" fill="none" stroke="#ff0000" stroke-width="1.5" stroke-linecap="round"/><path d="M149.69443,136.43402l1,-10l-13,11l-2,-19l10,13z" fill="none" stroke="#ff0000" stroke-width="1.5" stroke-linecap="round"/><path d="M135.69443,120.43402l-5,12" fill="none" stroke="#ff0000" stroke-width="1.5" stroke-linecap="round"/><path d="M142.69443,114.93402c0,2.53131 -2.91015,4.58333 -6.5,4.58333c-3.58985,0 -6.5,-2.05203 -6.5,-4.58333c0,-2.53131 2.91015,-4.58333 6.5,-4.58333c3.58985,0 6.5,2.05203 6.5,4.58333z" fill="#ff0000" stroke="#ff0000" stroke-width="1.5" stroke-linecap="butt"/><text transform="translate(176.69443,314.43402) scale(0.5,0.5)" font-size="40" xml:space="preserve" fill="#ff0000" fill-rule="nonzero" stroke="none" stroke-width="1" stroke-linecap="butt" stroke-linejoin="miter" stroke-miterlimit="10" stroke-dasharray="" stroke-dashoffset="0" font-family="Marker" font-weight="normal" text-anchor="start" style="mix-blend-mode: normal"><tspan x="0" dy="0">prepare to have a nitemare</tspan><tspan x="0" dy="46.150000000000006px">chara/NITEMARE SANS</tspan></text><path d="M147.69443,108.43402l-1,-25l-5,-7l-21,-18l17,28l-10,21z" fill="#ff0000" stroke="#ff0000" stroke-width="2" stroke-linecap="round"/></g></g></svg>