<svg xmlns="http://www.w3.org/2000/svg" xmlns:xlink="http://www.w3.org/1999/xlink" version="1.1" width="116.28125" height="102.75" viewBox="0,0,116.28125,102.75"><g><g data-paper-data="{&quot;isPaintingLayer&quot;:true}" fill-rule="nonzero" stroke-linecap="butt" stroke-linejoin="miter" stroke-miterlimit="10" stroke-dasharray="" stroke-dashoffset="0" style="mix-blend-mode: normal"><path d="M 86.25 90.75 C 86.25 92.9591 81.3251 94.75 75.25 94.75 C 69.1749 94.75 64.25 92.9591 64.25 90.75 C 64.25 88.5409 69.1749 86.75 75.25 86.75 C 81.3251 86.75 86.25 88.5409 86.25 90.75 Z " fill="#ffffff" stroke="#000000" stroke-width="2"/><path d="M 35.25 82.75 C 35.25 84.9591 30.3251 86.75 24.25 86.75 C 18.1749 86.75 13.25 84.9591 13.25 82.75 C 13.25 80.5409 18.1749 78.75 24.25 78.75 C 30.3251 78.75 35.25 80.5409 35.25 82.75 Z " fill="#ffffff" stroke="#000000" stroke-width="2"/><path d="M 104.25 69.75 C 104.25 71.9591 99.3251 73.75 93.25 73.75 C 87.1749 73.75 82.25 71.9591 82.25 69.75 C 82.25 67.5409 87.1749 65.75 93.25 65.75 C 99.3251 65.75 104.25 67.5409 104.25 69.75 Z " fill="#ffffff" stroke="#000000" stroke-width="2"/><path d="M 40.25 58.75 C 40.25 60.9591 35.3251 62.75 29.25 62.75 C 23.1749 62.75 18.25 60.9591 18.25 58.75 C 18.25 56.5409 23.1749 54.75 29.25 54.75 C 35.3251 54.75 40.25 56.5409 40.25 58.75 Z " fill="#ffffff" stroke="#000000" stroke-width="2"/><path d="M 75.25 43.75 C 75.25 45.9591 70.3251 47.75 64.25 47.75 C 58.1749 47.75 53.25 45.9591 53.25 43.75 C 53.25 41.5409 58.1749 39.75 64.25 39.75 C 70.3251 39.75 75.25 41.5409 75.25 43.75 Z " fill="#ffffff" stroke="#000000" stroke-width="2"/><path d="M 36.25 69.75 C 36.25 71.9591 31.3251 73.75 25.25 73.75 C 19.1749 73.75 14.25 71.9591 14.25 69.75 C 14.25 67.5409 19.1749 65.75 25.25 65.75 C 31.3251 65.75 36.25 67.5409 36.25 69.75 Z " fill="#ffffff" stroke="#000000" stroke-width="2"/><path d="M 51.25 97.75 C 51.25 99.9591 46.3251 101.75 40.25 101.75 C 34.1749 101.75 29.25 99.9591 29.25 97.75 C 29.25 95.5409 34.1749 93.75 40.25 93.75 C 46.3251 93.75 51.25 95.5409 51.25 97.75 Z " fill="#ffffff" stroke="#000000" stroke-width="2"/><path d="M 50.25 45.75 C 50.25 47.9591 45.3251 49.75 39.25 49.75 C 33.1749 49.75 28.25 47.9591 28.25 45.75 C 28.25 43.5409 33.1749 41.75 39.25 41.75 C 45.3251 41.75 50.25 43.5409 50.25 45.75 Z " fill="#ffffff" stroke="#000000" stroke-width="2"/><path d="M 100.25 54.75 C 100.25 56.9591 95.3251 58.75 89.25 58.75 C 83.1749 58.75 78.25 56.9591 78.25 54.75 C 78.25 52.5409 83.1749 50.75 89.25 50.75 C 95.3251 50.75 100.25 52.5409 100.25 54.75 Z " fill="#ffffff" stroke="#000000" stroke-width="2"/><text transform="matrix(0.5,0,0,0.5,0.25,21.75)" font-size="40" xml:space="preserve" fill="#ff0000" fill-rule="nonzero" stroke="none" stroke-width="1" stroke-linecap="butt" stroke-linejoin="miter" stroke-miterlimit="10" stroke-dasharray="" stroke-dashoffset="0" font-family="Sans Serif" font-weight="normal" text-anchor="start" style="mix-blend-mode: normal"><tspan x="0" dy="0">pelit sercull </tspan></text></g></g></svg>