<svg version="1.1" xmlns="http://www.w3.org/2000/svg" xmlns:xlink="http://www.w3.org/1999/xlink" width="211.68292" height="113.04515" viewBox="0,0,211.68292,113.04515"><g transform="translate(-129.20327,-122.55206)"><g data-paper-data="{&quot;isPaintingLayer&quot;:true}" fill-rule="nonzero" stroke-linejoin="miter" stroke-miterlimit="10" stroke-dasharray="" stroke-dashoffset="0" style="mix-blend-mode: normal"><path d="M130.67011,223.30206l88,-50l122,27l-126,-7l-76,41z" fill="#000000" stroke="#009efa" stroke-width="2" stroke-linecap="round"/><path d="M230.17011,180.30207c0,-1.38071 1.11929,-2.5 2.5,-2.5c1.38071,0 2.5,1.11929 2.5,2.5c0,1.38071 -1.11929,2.5 -2.5,2.5c-1.38071,0 -2.5,-1.11929 -2.5,-2.5z" fill="#009efa" stroke="none" stroke-width="0.5" stroke-linecap="butt"/><path d="M250.67011,183.05207c0.0316,0 0.06181,0.00585 0.08964,0.01655c0.07172,0.02436 0.16035,0.08459 0.16036,0.23344v0.00001c0,0.14884 -0.08862,0.20907 -0.16033,0.23344c-0.02783,0.01069 -0.05806,0.01656 -0.08966,0.01656h-0.05498c-0.66965,0.00003 -3.30625,-0.37104 -3.74331,0.23729c-0.35308,0.49144 0.01499,2.6783 -0.15147,3.39604c-0.47156,1.87866 -2.41164,3.30505 -4.40644,2.04766c-0.48464,-0.30549 -0.74991,-1.42816 -1.08383,-1.64051c-0.23635,-0.1503 -2.02657,0.95952 -2.56093,0.95952c-0.41125,-0.00001 -1.88494,0.18887 -2.17909,-0.11585c-0.38458,-0.39839 0.20916,-1.60738 -0.12499,-2.00741c-0.21112,-0.25275 -0.72423,-0.0331 -0.94938,-0.27344c-0.96535,-1.03051 -0.31037,-2.60331 -1.7456,-2.60331c0,0 -0.25,0 -0.25,-0.25c0,-0.25 0.25,-0.25 0.25,-0.25c1.88764,0 1.0575,1.63741 2.1105,2.76147c0.23064,0.24621 0.75195,0.03581 0.96822,0.29473c0.32741,0.39196 -0.12161,1.7501 0.10098,1.98069c0.11116,0.11516 1.58882,-0.0369 1.81936,-0.03689c0.83761,0 2.06281,-1.28625 2.80445,-0.8962c0.39893,0.2098 0.63576,1.35723 1.10692,1.65421c1.71444,1.08067 3.31224,-0.12633 3.65294,-1.7385c0.20042,-0.85012 -0.23675,-2.92114 0.23228,-3.57397c0.61629,-0.85778 3.24482,-0.4455 4.14935,-0.44555h0.05497c0,0 0.00001,0 0.00002,0z" fill="#009efa" stroke="none" stroke-width="0.5" stroke-linecap="butt"/><path d="M304.70034,197.55023c-0.24816,0.03024 -0.2784,-0.21794 -0.2784,-0.21794l-0.01349,-0.11073c-0.21862,-1.79447 -5.48733,-3.69181 -5.4898,-1.80667c-0.00735,0.56456 0.12282,1.61714 -0.17801,2.11837c-1.37009,2.28281 -3.81616,0.31357 -4.92077,-0.91467c-0.2509,-0.27898 -0.70324,-0.64218 -0.98865,-1.01539c-0.71818,3.40905 -6.5497,1.10948 -9.05919,0.62688c-3.43703,-0.66097 -6.87404,-1.32193 -10.31107,-1.9829c-2.94602,-0.56654 -5.89204,-1.13308 -8.83805,-1.69962c0,0 -0.2455,-0.04721 -0.19829,-0.29271c0.04721,-0.2455 0.29271,-0.19829 0.29271,-0.19829c2.94602,0.56654 5.89204,1.13309 8.83806,1.69963c3.43703,0.66097 6.87404,1.32193 10.31107,1.98289c2.29295,0.44095 8.44457,2.89941 8.53614,-0.78154l0.01327,-0.499c0.00309,-0.13538 0.11381,-0.24418 0.24993,-0.24418c0.1377,0 0.24939,0.11132 0.25,0.24887l0.00164,0.31896c1.34463,2.58508 5.44295,5.09996 5.50123,0.62911c0.00362,-2.79474 6.22097,-0.42657 6.48612,1.74979l0.01349,0.11074c0,0 0.03023,0.24817 -0.21793,0.2784z" fill="#009efa" stroke="none" stroke-width="0.5" stroke-linecap="butt"/><path d="M194.22775,193.8036c-0.30555,0.33974 -0.63194,0.28634 -0.84036,0.19273c-0.02333,0.7721 -0.06542,1.55889 -0.14458,1.72208c-0.19173,0.39526 -0.46903,0.72322 -0.80182,1.0052c2.05964,-0.74518 3.75983,-2.51149 6.13237,-2.66566c0.49388,-0.00271 0.86226,0.27427 0.80353,-0.2754l0.04358,-0.49561c0.00992,-0.12899 0.11772,-0.23057 0.24926,-0.23057c0.06883,0 0.13116,0.02782 0.17637,0.07281c0.00001,0.00001 0.00002,0.00002 0.00003,0.00003l0.35435,0.35269l-0.06458,0.06489c0.92037,1.07423 -0.05295,2.23556 0.73074,3.28973c0.2103,0.28288 3.39229,0.46357 3.58076,0.28437c0.43519,-0.41377 0.02339,-0.99737 1.00495,-1.48875c1.99652,-0.99949 -0.10011,-3.09258 1.03042,-4.37162c0.43395,-0.49096 1.58349,0.01709 2.08437,-0.18954c1.23143,-0.50802 1.75061,-0.98674 3.27517,-1.00765c0.95078,-0.01293 3.89506,-0.51242 4.65034,0.03654c0.70064,0.50923 0.42692,2.42163 0.42744,3.15312l0.00003,0.04891c0,0 0.00017,0.25 -0.24983,0.25018c-0.25,0.00018 -0.25017,-0.24982 -0.25017,-0.24982l-0.00003,-0.04892c-0.00036,-0.50798 0.24969,-2.40662 -0.2214,-2.74902c-0.58659,-0.42635 -3.5487,0.04805 -4.34956,0.05896c-1.49839,0.02023 -1.88949,0.47412 -3.09129,0.96991c-0.32727,0.13501 -1.6786,-0.1925 -1.90042,0.05846c-1.12813,1.27633 1.14652,3.32228 -1.18123,4.48759c-0.49457,0.24759 -0.48342,1.02291 -0.88425,1.40401c-0.45729,0.43479 -3.94322,0.16721 -4.32655,-0.34842c-0.29946,-0.40282 -0.44898,-2.22102 -0.61717,-3.17718c-0.17547,0.78558 -0.44709,0.59592 -1.25724,0.60001c-2.85673,0.18691 -4.6833,2.6967 -7.43444,2.97027c-1.11423,0.54674 -2.38245,0.93759 -3.24056,1.57271c-1.26453,0.93593 -2.08856,2.42226 -3.67234,2.95887c-0.45222,0.15322 -0.99071,-0.11062 -1.43043,0.07546c-0.94304,0.39906 -1.44745,1.58236 -2.42573,1.88493c-1.25593,0.38845 -3.39146,0.03218 -4.71734,0.03218c0,0 -0.75,0 -0.75,-0.75c0,-0.75 0.75,-0.75 0.75,-0.75c1.18939,0 3.14818,0.36527 4.28266,0.03218c0.84888,-0.24923 1.54295,-1.5071 2.26404,-1.82565c0.47805,-0.21119 1.06367,0.02928 1.56283,-0.12554c1.32572,-0.41117 2.19042,-1.96204 3.2454,-2.73919c1.1372,-0.83773 4.24666,-1.44472 4.86077,-2.81462c0.36715,-0.81901 0.01567,-1.79504 0.03257,-2.69242l1.46448,0.23241l0.03525,-0.20407c-0.0009,0.0473 -0.00188,0.11881 -0.00313,0.20916l0.75666,0.12008c0,0 0.55764,0.50153 0.05611,1.05918z" fill="#009efa" stroke="none" stroke-width="0.5" stroke-linecap="butt"/><path d="M180.00558,210.97285c-0.67079,0.33548 -1.00627,-0.33531 -1.00627,-0.33531l-0.32929,-0.65842c-0.23173,-0.61203 -1.73883,-1.86432 -2.46751,-1.12359c-0.64744,0.65815 0.49846,1.91938 0.13151,2.76655c-0.19658,0.45384 -2.22941,2.22521 -2.70428,2.38762c-2.17916,0.74527 -4.19948,-0.71124 -6.1517,-0.93622c-1.40147,-0.16151 -2.6315,0.57483 -3.65824,1.47729l-0.52862,0.92403c-0.12738,0.23253 -0.37438,0.39021 -0.65822,0.39021c-0.36901,0 -0.67578,-0.26651 -0.73834,-0.61755l-0.27454,-1.3831c-0.20693,-0.40896 -0.41387,-0.81792 -0.62081,-1.22688c0,0 -0.33541,-0.67082 0.33541,-1.00623c0.67082,-0.33541 1.00623,0.33541 1.00623,0.33541c0.2156,0.43576 0.4312,0.87151 0.6468,1.30727c1.34002,-3.35029 7.74122,0.11586 10.16232,-0.68545c2.91684,-0.96539 0.54218,-3.33594 1.98743,-4.7892c1.66016,-1.66938 4.1547,0.26165 4.87413,1.50889l0.3293,0.65842c0,0 0.33548,0.67079 -0.33531,1.00626z" fill="#009efa" stroke="none" stroke-width="0.5" stroke-linecap="butt"/><path d="M228.10638,184.69201c0.61005,0.43627 0.17378,1.04633 0.17378,1.04633l-1.29744,1.47047c-2.78323,0.43347 -0.88167,3.08958 -3.83746,3.76985c-2.63917,0.6074 -6.69883,-4.59099 -8.89118,-6.05256c0,0 -0.62404,-0.41602 -0.20801,-1.04006c0.41602,-0.62404 1.04006,-0.20802 1.04006,-0.20802c1.74928,1.16619 3.29893,2.31686 4.80391,3.79279c0.81604,0.80029 1.60151,2.29969 2.93614,2.04217c0.66362,-0.12805 0.75368,-1.13103 1.02086,-1.75185c0.45873,-1.0659 1.70552,-1.75158 2.83406,-2.02169l0.37896,-0.87366c0,0 0.43627,-0.61005 1.04632,-0.17377z" fill="#009efa" stroke="none" stroke-width="0.5" stroke-linecap="butt"/><path d="M150.92058,215.2754c0.02666,-0.74953 0.77618,-0.72287 0.77618,-0.72287l1.33119,0.0584c0.94435,0.20307 2.68974,0.40566 3.28389,1.3507c0.51169,0.81388 0.34915,6.15194 -0.28007,6.88202c-0.62629,0.72667 -2.2441,0.06884 -2.73609,0.89238c-0.54421,0.91095 0.29579,2.46202 -0.51998,3.14063c-1.4828,1.23348 -5.08742,-0.45533 -6.51518,-0.88478c-1.37361,-0.41316 -4.44615,-1.02028 -5.06638,-2.48103c-0.99693,0.62005 -1.87973,0.79973 -3.18861,1.46203c0,0 -0.67082,0.33541 -1.00623,-0.33541c-0.33541,-0.67082 0.33541,-1.00623 0.33541,-1.00623c1.24049,-0.61376 2.47591,-0.72479 3.53518,-1.54765l0.03501,-1.24916c0.00978,-0.4057 0.34173,-0.73157 0.74978,-0.73157c0.41284,0 0.74777,0.33356 0.74999,0.74587l0.00617,0.9781c1.19119,2.15657 2.69831,2.3587 5.66278,3.37263c0.44433,0.15197 3.41137,0.78415 3.75184,0.51658c0.73686,-0.57906 -0.31569,-2.0316 0.21626,-2.80316c0.58057,-0.84206 2.15856,-0.34235 2.87488,-1.07242c0.20066,-0.20452 0.28189,-4.79784 0.11176,-5.10251c-0.1707,-0.30569 -2.2659,-0.65027 -2.30926,-0.65916l-1.07564,-0.0272c0,0 -0.74953,-0.02666 -0.72287,-0.77618z" fill="#009efa" stroke="none" stroke-width="0.5" stroke-linecap="butt"/><text transform="translate(132.6701,144.30206) scale(0.5,0.5)" font-size="40" xml:space="preserve" fill="#009efa" fill-rule="nonzero" stroke="none" stroke-width="1" stroke-linecap="butt" stroke-linejoin="miter" stroke-miterlimit="10" stroke-dasharray="" stroke-dashoffset="0" font-family="Sans Serif" font-weight="normal" text-anchor="start" style="mix-blend-mode: normal"><tspan x="0" dy="0">NIGHTMARE STAB</tspan></text></g></g></svg>