<svg version="1.1" xmlns="http://www.w3.org/2000/svg" xmlns:xlink="http://www.w3.org/1999/xlink" width="205.43681" height="84.02872" viewBox="0,0,205.43681,84.02872"><defs><radialGradient cx="263.5" cy="132" r="67" gradientUnits="userSpaceOnUse" id="color-1"><stop offset="0" stop-color="#ff0000"/><stop offset="1" stop-color="#425356"/></radialGradient></defs><g transform="translate(-195.7585,-85.25)"><g data-paper-data="{&quot;isPaintingLayer&quot;:true}" fill-rule="nonzero" stroke-linejoin="miter" stroke-miterlimit="10" stroke-dasharray="" stroke-dashoffset="0" style="mix-blend-mode: normal"><path d="M196.5,96l76,48l58,19l-69,5l-56,-39l10,-19z" fill="#ff0000" stroke="url(#color-1)" stroke-width="2.5" stroke-linecap="round"/><path d="M204.75,128c0,-2.07107 1.67893,-3.75 3.75,-3.75c2.07107,0 3.75,1.67893 3.75,3.75c0,2.07107 -1.67893,3.75 -3.75,3.75c-2.07107,0 -3.75,-1.67893 -3.75,-3.75z" fill="#e20000" stroke="none" stroke-width="0.5" stroke-linecap="butt"/><path d="M232.75,127c0,-2.07107 1.67893,-3.75 3.75,-3.75c2.07107,0 3.75,1.67893 3.75,3.75c0,2.07107 -1.67893,3.75 -3.75,3.75c-2.07107,0 -3.75,-1.67893 -3.75,-3.75z" fill="#e20000" stroke="none" stroke-width="0.5" stroke-linecap="butt"/><path d="M230.75,135c0,-2.07107 1.67893,-3.75 3.75,-3.75c2.07107,0 3.75,1.67893 3.75,3.75c0,2.07107 -1.67893,3.75 -3.75,3.75c-2.07107,0 -3.75,-1.67893 -3.75,-3.75z" fill="#e20000" stroke="none" stroke-width="0.5" stroke-linecap="butt"/><path d="M248.75,147c0,-2.07107 1.67893,-3.75 3.75,-3.75c2.07107,0 3.75,1.67893 3.75,3.75c0,2.07107 -1.67893,3.75 -3.75,3.75c-2.07107,0 -3.75,-1.67893 -3.75,-3.75z" fill="#e20000" stroke="none" stroke-width="0.5" stroke-linecap="butt"/><path d="M274.75,154c0,-2.07107 1.67893,-3.75 3.75,-3.75c2.07107,0 3.75,1.67893 3.75,3.75c0,2.07107 -1.67893,3.75 -3.75,3.75c-2.07107,0 -3.75,-1.67893 -3.75,-3.75z" fill="#e20000" stroke="none" stroke-width="0.5" stroke-linecap="butt"/><path d="M256.75,158c0,-2.07107 1.67893,-3.75 3.75,-3.75c2.07107,0 3.75,1.67893 3.75,3.75c0,2.07107 -1.67893,3.75 -3.75,3.75c-2.07107,0 -3.75,-1.67893 -3.75,-3.75z" fill="#e20000" stroke="none" stroke-width="0.5" stroke-linecap="butt"/><path d="M305.75,162c0,-2.07107 1.67893,-3.75 3.75,-3.75c2.07107,0 3.75,1.67893 3.75,3.75c0,2.07107 -1.67893,3.75 -3.75,3.75c-2.07107,0 -3.75,-1.67893 -3.75,-3.75z" fill="#e20000" stroke="none" stroke-width="0.5" stroke-linecap="butt"/><path d="M285.75,152c0,-2.07107 1.67893,-3.75 3.75,-3.75c2.07107,0 3.75,1.67893 3.75,3.75c0,2.07107 -1.67893,3.75 -3.75,3.75c-2.07107,0 -3.75,-1.67893 -3.75,-3.75z" fill="#e20000" stroke="none" stroke-width="0.5" stroke-linecap="butt"/><path d="M253.75,137c0,-2.07107 1.67893,-3.75 3.75,-3.75c2.07107,0 3.75,1.67893 3.75,3.75c0,2.07107 -1.67893,3.75 -3.75,3.75c-2.07107,0 -3.75,-1.67893 -3.75,-3.75z" fill="#e20000" stroke="none" stroke-width="0.5" stroke-linecap="butt"/><path d="M238.75,141c0,-2.07107 1.67893,-3.75 3.75,-3.75c2.07107,0 3.75,1.67893 3.75,3.75c0,2.07107 -1.67893,3.75 -3.75,3.75c-2.07107,0 -3.75,-1.67893 -3.75,-3.75z" fill="#e20000" stroke="none" stroke-width="0.5" stroke-linecap="butt"/><text transform="translate(307.5,107) scale(0.5,0.5)" font-size="40" xml:space="preserve" fill="#e20000" fill-rule="nonzero" stroke="none" stroke-width="1" stroke-linecap="butt" stroke-linejoin="miter" stroke-miterlimit="10" stroke-dasharray="" stroke-dashoffset="0" font-family="Sans Serif" font-weight="normal" text-anchor="start" style="mix-blend-mode: normal"><tspan x="0" dy="0">Phantom </tspan><tspan x="0" dy="46.150000000000006px">KNIFE</tspan></text></g></g></svg>