<svg xmlns="http://www.w3.org/2000/svg" xmlns:xlink="http://www.w3.org/1999/xlink" version="1.1" width="408.90324" height="331.88863" viewBox="0,0,408.90324,331.88863"><g><g data-paper-data="{&quot;isPaintingLayer&quot;:true}" fill-rule="nonzero" stroke-linejoin="miter" stroke-miterlimit="10" stroke-dasharray="" stroke-dashoffset="0" style="mix-blend-mode: normal"><path d="M288.5,126.5c0,71.52088 -48.5771,129.5 -108.5,129.5c-59.9229,0 -108.5,-57.97912 -108.5,-129.5c0,-71.52088 48.5771,-129.5 108.5,-129.5c59.9229,0 108.5,57.97912 108.5,129.5z" fill="#ffffff" stroke="none" stroke-width="0" stroke-linecap="butt" transform="matrix(1,0,0,1,-52.90684,41.44432)"/><path d="M 133.053 305.5013 C 132.1619 291.7229 142.609 279.831 156.3874 278.9399 C 158.985 278.7719 161.5155 279.0068 163.918 279.5912 C 165.4359 267.9901 174.9769 258.6979 187.0943 257.9141 C 188.465 257.8255 189.817 257.849 191.1413 257.9769 C 191.0902 257.5409 191.0501 257.1012 191.0215 256.6581 C 190.1502 243.187 200.1171 231.5192 213.4389 230.1726 C 213.343 229.5122 213.2726 228.8428 213.2288 228.1654 C 212.488 216.7107 219.5835 206.5599 229.9146 202.9498 C 228.9265 200.5214 228.3065 197.895 228.128 195.1349 C 227.5851 186.7404 231.2508 179.046 237.3144 174.1132 C 236.1573 171.4967 235.4329 168.6357 235.2375 165.6145 C 234.3464 151.8361 244.7935 139.9442 258.5719 139.053 C 272.3502 138.1619 284.2422 148.609 285.1333 162.3874 C 285.6762 170.7819 282.0105 178.4762 275.9469 183.409 C 277.104 186.0255 277.8284 188.8866 278.0238 191.9078 C 278.7646 203.3624 271.6691 213.5133 261.3379 217.1234 C 262.3261 219.5517 262.946 222.1782 263.1246 224.9383 C 263.9958 238.4093 254.0289 250.0771 240.7071 251.4237 C 240.803 252.0841 240.8734 252.7535 240.9172 253.431 C 241.8084 267.2093 231.3612 279.1012 217.5829 279.9924 C 216.2122 280.081 214.8603 280.0575 213.5359 279.9296 C 213.5871 280.3656 213.6271 280.8053 213.6558 281.2485 C 214.5469 295.0268 204.0998 306.9187 190.3214 307.8099 C 187.7238 307.9779 185.1933 307.7429 182.7908 307.1586 C 181.2729 318.7596 171.7319 328.0519 159.6144 328.8356 C 145.8361 329.7267 133.9442 319.2796 133.053 305.5013 Z " fill="#fffd00" stroke="none" stroke-width="0.5" stroke-linecap="butt"/><text transform="matrix(2.04472,0,0,2.32015,68.59316,195.44432)" font-size="40" xml:space="preserve" fill="#000000" fill-rule="nonzero" stroke="none" stroke-width="1" stroke-linecap="butt" stroke-linejoin="miter" stroke-miterlimit="10" stroke-dasharray="" stroke-dashoffset="0" font-family="Sans Serif" font-weight="normal" text-anchor="start" style="mix-blend-mode: normal"><tspan x="0" dy="0">V</tspan></text><text transform="matrix(-2.0433743368522546,0.0741700606283207,-0.08416099327379704,-2.3186230719354035,178.90553999999997,191.01219)" font-size="40" xml:space="preserve" fill="#000000" fill-rule="nonzero" stroke="none" stroke-width="1" stroke-linecap="butt" stroke-linejoin="miter" stroke-miterlimit="10" stroke-dasharray="" stroke-dashoffset="0" font-family="Sans Serif" font-weight="normal" text-anchor="start" style="mix-blend-mode: normal"><tspan x="0" dy="0">V</tspan></text><text transform="matrix(-2.0380523693164574,-0.1648682019783481,0.1870773649173058,-2.3125955292777847,143.96961,190.02190000000002)" font-size="40" xml:space="preserve" fill="#000000" fill-rule="nonzero" stroke="none" stroke-width="1" stroke-linecap="butt" stroke-linejoin="miter" stroke-miterlimit="10" stroke-dasharray="" stroke-dashoffset="0" font-family="Sans Serif" font-weight="normal" text-anchor="start" style="mix-blend-mode: normal"><tspan x="0" dy="0">V</tspan></text><text transform="matrix(2.04472,0,0,2.32015,110.59316,194.44432)" font-size="40" xml:space="preserve" fill="#000000" fill-rule="nonzero" stroke="none" stroke-width="1" stroke-linecap="butt" stroke-linejoin="miter" stroke-miterlimit="10" stroke-dasharray="" stroke-dashoffset="0" font-family="Sans Serif" font-weight="normal" text-anchor="start" style="mix-blend-mode: normal"><tspan x="0" dy="0">V</tspan></text><text transform="matrix(2.04472,0,0,2.32015,151.59316,191.44432)" font-size="40" xml:space="preserve" fill="#000000" fill-rule="nonzero" stroke="none" stroke-width="1" stroke-linecap="butt" stroke-linejoin="miter" stroke-miterlimit="10" stroke-dasharray="" stroke-dashoffset="0" font-family="Sans Serif" font-weight="normal" text-anchor="start" style="mix-blend-mode: normal"><tspan x="0" dy="0">V</tspan></text><path d="M152.5,71v-46h26v46z" fill="#000000" stroke="none" stroke-width="0" stroke-linecap="butt" transform="matrix(1,0,0,1,-52.90684,41.44432)"/><path d="M197.5,70v-44h30v44z" fill="#000000" stroke="none" stroke-width="0" stroke-linecap="butt" transform="matrix(1,0,0,1,-52.90684,41.44432)"/><path d="M 125.5719 331.8356 C 113.4544 331.0519 103.9134 321.7596 102.3955 310.1586 C 99.9931 310.7429 97.4625 310.9779 94.8649 310.8099 C 81.0866 309.9187 70.6394 298.0268 71.5306 284.2485 C 71.5592 283.8053 71.5993 283.3656 71.6504 282.9296 C 70.3261 283.0575 68.9741 283.081 67.6034 282.9924 C 53.8251 282.1012 43.378 270.2093 44.2691 256.431 C 44.3129 255.7535 44.3833 255.0841 44.4793 254.4237 C 31.1574 253.0771 21.1905 241.4093 22.0618 227.9383 C 22.2403 225.1782 22.8603 222.5517 23.8484 220.1234 C 13.5173 216.5132 6.4217 206.3624 7.1626 194.9078 C 7.358 191.8865 8.0823 189.0255 9.2395 186.409 C 3.1759 181.4762 -0.4899 173.7819 0.0531 165.3874 C 0.9442 151.609 12.8361 141.1619 26.6145 142.053 C 40.3928 142.9442 50.8399 154.8361 49.9488 168.6144 C 49.7534 171.6357 49.0291 174.4967 47.8719 177.1132 C 53.9355 182.046 57.6013 189.7403 57.0583 198.1349 C 56.8798 200.895 56.2599 203.5214 55.2717 205.9498 C 65.6029 209.5599 72.6984 219.7107 71.9575 231.1653 C 71.9137 231.8428 71.8433 232.5122 71.7474 233.1726 C 85.0693 234.5192 95.0361 246.187 94.1649 259.6581 C 94.1362 260.1012 94.0962 260.5409 94.0451 260.9769 C 95.3694 260.849 96.7214 260.8255 98.092 260.9141 C 110.2095 261.6979 119.7504 270.9901 121.2684 282.5912 C 123.6708 282.0068 126.2014 281.7719 128.799 281.9399 C 142.5773 282.831 153.0244 294.723 152.1333 308.5013 C 151.2422 322.2796 139.3502 332.7267 125.5719 331.8356 Z " data-paper-data="{&quot;index&quot;:null}" fill="#fffd00" stroke="none" stroke-width="0.5" stroke-linecap="butt"/><path d="M 161.6144 0.053 C 173.7319 0.8367 183.2729 10.129 184.7908 21.7301 C 187.1933 21.1457 189.7238 20.9108 192.3214 21.0788 C 206.0998 21.9699 216.5469 33.8619 215.6558 47.6402 C 215.6271 48.0833 215.5871 48.523 215.5359 48.959 C 216.8603 48.8312 218.2122 48.8076 219.5829 48.8963 C 233.3612 49.7874 243.8083 61.6793 242.9172 75.4577 C 242.8734 76.1351 242.803 76.8045 242.7071 77.4649 C 256.0289 78.8115 265.9958 90.4794 265.1245 103.9504 C 264.946 106.7105 264.3261 109.3369 263.3379 111.7653 C 273.6691 115.3754 280.7646 125.5263 280.0238 136.9809 C 279.8284 140.0021 279.104 142.8631 277.9469 145.4796 C 284.0105 150.4125 287.6762 158.1068 287.1333 166.5013 C 286.2421 180.2796 274.3502 190.7267 260.5719 189.8356 C 246.7935 188.9445 236.3464 177.0525 237.2375 163.2742 C 237.4329 160.253 238.1573 157.3919 239.3144 154.7755 C 233.2508 149.8426 229.5851 142.1483 230.128 133.7538 C 230.3065 130.9937 230.9265 128.3673 231.9146 125.9389 C 221.5835 122.3288 214.4879 112.1779 215.2288 100.7233 C 215.2726 100.0458 215.343 99.3765 215.4389 98.7161 C 202.1171 97.3695 192.1502 85.7016 193.0215 72.2306 C 193.0501 71.7874 193.0902 71.3477 193.1413 70.9117 C 191.8169 71.0396 190.465 71.0631 189.0943 70.9745 C 176.9769 70.1908 167.4359 60.8985 165.918 49.2975 C 163.5155 49.8818 160.985 50.1168 158.3873 49.9488 C 144.609 49.0576 134.1619 37.1657 135.053 23.3874 C 135.9441 9.609 147.8361 -0.8381 161.6144 0.053 Z " data-paper-data="{&quot;index&quot;:null}" fill="#fffd00" stroke="none" stroke-width="0.5" stroke-linecap="butt"/><path d="M 155.1333 23.3874 C 156.0244 37.1657 145.5773 49.0576 131.799 49.9488 C 129.2013 50.1168 126.6708 49.8818 124.2683 49.2975 C 122.7504 60.8985 113.2095 70.1908 101.092 70.9745 C 99.7213 71.0632 98.3694 71.0396 97.045 70.9117 C 97.0962 71.3477 97.1362 71.7874 97.1649 72.2306 C 98.0361 85.7016 88.0692 97.3695 74.7474 98.7161 C 74.8433 99.3765 74.9137 100.0459 74.9575 100.7233 C 75.6984 112.1779 68.6029 122.3288 58.2717 125.9389 C 59.2598 128.3673 59.8798 130.9937 60.0583 133.7538 C 60.6012 142.1483 56.9355 149.8426 50.8719 154.7755 C 52.0291 157.3919 52.7534 160.253 52.9488 163.2742 C 53.8399 177.0525 43.3928 188.9445 29.6145 189.8356 C 15.8361 190.7268 3.9442 180.2796 3.053 166.5013 C 2.5101 158.1068 6.1758 150.4125 12.2394 145.4796 C 11.0823 142.8631 10.358 140.0021 10.1626 136.9809 C 9.4217 125.5263 16.5172 115.3754 26.8484 111.7653 C 25.8603 109.3369 25.2403 106.7105 25.0618 103.9504 C 24.1905 90.4794 34.1574 78.8115 47.4792 77.4649 C 47.3833 76.8045 47.3129 76.1351 47.2691 75.4577 C 46.378 61.6794 56.8251 49.7874 70.6034 48.8963 C 71.9741 48.8076 73.326 48.8312 74.6504 48.959 C 74.5992 48.5231 74.5592 48.0833 74.5305 47.6402 C 73.6394 33.8619 84.0865 21.9699 97.8649 21.0788 C 100.4625 20.9108 102.993 21.1458 105.3955 21.7301 C 106.9134 10.129 116.4544 0.8368 128.5718 0.053 C 142.3502 -0.8381 154.2421 9.609 155.1333 23.3874 Z " data-paper-data="{&quot;index&quot;:null}" fill="#fffd00" stroke="none" stroke-width="0.5" stroke-linecap="butt"/><path d="M 199.5932 124.9443 L 180.5932 247.9443 " fill="none" stroke="#000000" stroke-width="5" stroke-linecap="round"/><path d="M 91.5932 244.9443 L 71.5932 135.9443 " fill="none" stroke="#000000" stroke-width="5" stroke-linecap="round"/><text transform="matrix(0.83059,0,0,1.51842,294.59316,168.19432)" font-size="40" xml:space="preserve" fill="#ff0000" fill-rule="nonzero" stroke="none" stroke-width="1" stroke-linecap="butt" stroke-linejoin="miter" stroke-miterlimit="10" stroke-dasharray="" stroke-dashoffset="0" font-family="Sans Serif" font-weight="normal" text-anchor="start" style="mix-blend-mode: normal"><tspan x="0" dy="0">EVIL</tspan><tspan x="0" dy="46.15px">LAUGH</tspan></text></g></g></svg>