<svg xmlns="http://www.w3.org/2000/svg" xmlns:xlink="http://www.w3.org/1999/xlink" version="1.1" width="156" height="156.14729" viewBox="0,0,156,156.14729"><g><g data-paper-data="{&quot;isPaintingLayer&quot;:true}" fill-rule="nonzero" stroke-linejoin="miter" stroke-miterlimit="10" stroke-dasharray="" stroke-dashoffset="0" style="mix-blend-mode: normal"><path d="M 1 155.1473 L 1 93.1473 L 155 93.1473 L 155 155.1473 Z " fill="#ffffff" stroke="#000000" stroke-width="2" stroke-linecap="butt"/><path d="M 92.3121 124.0401 C 92.3121 130.3914 86.268 135.5401 78.8121 135.5401 C 71.3563 135.5401 65.3121 130.3914 65.3121 124.0401 C 65.3121 117.6888 71.3563 112.5401 78.8121 112.5401 C 86.268 112.5401 92.3121 117.6888 92.3121 124.0401 Z " fill="#ffffff" stroke="#000000" stroke-width="2" stroke-linecap="butt"/><text transform="matrix(1.39952,0,0,1.04171,14,34.89729)" font-size="40" xml:space="preserve" fill="#ff0000" fill-rule="nonzero" stroke="none" stroke-width="1" stroke-linecap="butt" stroke-linejoin="miter" stroke-miterlimit="10" stroke-dasharray="" stroke-dashoffset="0" font-family="Marker" font-weight="normal" text-anchor="start" style="mix-blend-mode: normal"><tspan x="0" dy="0">slam</tspan></text><path d="M 108.9108 99.2917 L 144.7825 136.6899 " fill="none" stroke="#000000" stroke-width="2" stroke-linecap="round"/><path d="M 99.752 106.924 L 24.9556 138.9796 " fill="none" stroke="#000000" stroke-width="2" stroke-linecap="round"/><path d="M 18.8498 129.8208 L 13.5072 101.5814 " fill="none" stroke="#000000" stroke-width="2" stroke-linecap="round"/><path d="M 28.0085 100.0549 L 115.0166 138.2163 " fill="none" stroke="#000000" stroke-width="2" stroke-linecap="round"/><path d="M 87.5404 139.7428 L 139.4399 146.6118 L 101.2785 132.1105 " fill="none" stroke="#000000" stroke-width="2" stroke-linecap="round"/></g></g></svg>