<svg version="1.1" xmlns="http://www.w3.org/2000/svg" xmlns:xlink="http://www.w3.org/1999/xlink" width="269.15712" height="176.50669" viewBox="0,0,269.15712,176.50669"><g transform="translate(-152.15449,-79.43402)"><g data-paper-data="{&quot;isPaintingLayer&quot;:true}" fill-rule="nonzero" stroke-linejoin="miter" stroke-miterlimit="10" stroke-dasharray="" stroke-dashoffset="0" style="mix-blend-mode: normal"><path d="M172.69443,160.43402l15,69l-2,-72l8,26l12,-26l6,21l14,-21l3,34l3,-35l14,25l-3,-26l10,17l13,-17l1,72l17,-76l-2,95l-5,-42l-12,38l-4,-41l-6,20l-3,-25l-3,35l-11,-50l2,43l-14,-13l-6,-41v69l-15,-54v47l-14,-25l2,24l-4,10l-31,-99z" fill="none" stroke="#ff0000" stroke-width="4.5" stroke-linecap="round"/><path d="M173.69443,105.43402c0,-13.80712 11.19288,-25 25,-25c13.80712,0 25,11.19288 25,25c0,13.80712 -11.19288,25 -25,25c-13.80712,0 -25,-11.19288 -25,-25z" fill="#ff0000" stroke="none" stroke-width="0.5" stroke-linecap="butt"/><path d="M225.69443,104.43402c0,-13.80712 11.19288,-25 25,-25c13.80712,0 25,11.19288 25,25c0,13.80712 -11.19288,25 -25,25c-13.80712,0 -25,-11.19288 -25,-25z" fill="#ff0000" stroke="none" stroke-width="0.5" stroke-linecap="butt"/><text transform="translate(312.69443,157.43402) scale(0.5,0.5)" font-size="40" xml:space="preserve" fill="#ff0000" fill-rule="nonzero" stroke="none" stroke-width="1" stroke-linecap="butt" stroke-linejoin="miter" stroke-miterlimit="10" stroke-dasharray="" stroke-dashoffset="0" font-family="Marker" font-weight="normal" text-anchor="start" style="mix-blend-mode: normal"><tspan x="0" dy="0">NIGHTMARE</tspan><tspan x="0" dy="46.150000000000006px">FORM</tspan></text></g></g></svg>