<svg version="1.1" xmlns="http://www.w3.org/2000/svg" xmlns:xlink="http://www.w3.org/1999/xlink" width="408.90324" height="331.88863" viewBox="0,0,408.90324,331.88863"><g transform="translate(-52.90684,41.44432)"><g data-paper-data="{&quot;isPaintingLayer&quot;:true}" fill-rule="nonzero" stroke-linejoin="miter" stroke-miterlimit="10" stroke-dasharray="" stroke-dashoffset="0" style="mix-blend-mode: normal"><path d="M288.5,126.5c0,71.52088 -48.5771,129.5 -108.5,129.5c-59.9229,0 -108.5,-57.97912 -108.5,-129.5c0,-71.52088 48.5771,-129.5 108.5,-129.5c59.9229,0 108.5,57.97912 108.5,129.5z" fill="#ffffff" stroke="none" stroke-width="0" stroke-linecap="butt"/><path d="M185.95987,264.05696c-0.89114,-13.77833 9.556,-25.67028 23.33433,-26.56142c2.59761,-0.168 5.12818,0.06699 7.53062,0.65132c1.51793,-11.60105 11.05889,-20.89333 23.17637,-21.67704c1.37064,-0.08865 2.72261,-0.06509 4.04694,0.06278c-0.05112,-0.436 -0.09116,-0.87571 -0.11982,-1.31886c-0.87126,-13.47103 9.09562,-25.13888 22.41748,-26.48548c-0.09592,-0.66039 -0.16633,-1.32978 -0.21014,-2.00723c-0.74085,-11.45462 6.35467,-21.60548 16.68584,-25.21559c-0.98815,-2.42838 -1.60811,-5.0548 -1.78662,-7.8149c-0.54293,-8.39451 3.12281,-16.08882 9.18641,-21.02168c-1.15716,-2.61647 -1.88149,-5.47751 -2.07689,-8.49873c-0.89114,-13.77833 9.556,-25.67028 23.33433,-26.56142c13.77833,-0.89114 25.67028,9.556 26.56142,23.33433c0.54293,8.39451 -3.12281,16.08882 -9.18641,21.02168c1.15716,2.61647 1.88149,5.47751 2.07689,8.49873c0.74085,11.45462 -6.35467,21.60548 -16.68584,25.21559c0.98815,2.42838 1.60811,5.0548 1.78662,7.8149c0.87126,13.47103 -9.09562,25.13888 -22.41748,26.48548c0.09592,0.66039 0.16633,1.32978 0.21014,2.00723c0.89114,13.77833 -9.556,25.67028 -23.33433,26.56142c-1.37064,0.08865 -2.72261,0.06509 -4.04694,-0.06278c0.05112,0.436 0.09116,0.87571 0.11982,1.31886c0.89114,13.77833 -9.556,25.67028 -23.33433,26.56142c-2.59761,0.168 -5.12818,-0.06699 -7.53062,-0.65132c-1.51793,11.60105 -11.05889,20.89333 -23.17637,21.67704c-13.77833,0.89114 -25.67028,-9.556 -26.56142,-23.33433z" fill="#fffd00" stroke="none" stroke-width="0.5" stroke-linecap="butt"/><text transform="translate(121.5,154) scale(2.04472,2.32015)" font-size="40" xml:space="preserve" fill="#000000" fill-rule="nonzero" stroke="none" stroke-width="1" stroke-linecap="butt" stroke-linejoin="miter" stroke-miterlimit="10" stroke-dasharray="" stroke-dashoffset="0" font-family="Sans Serif" font-weight="normal" text-anchor="start" style="mix-blend-mode: normal"><tspan x="0" dy="0">V</tspan></text><text transform="translate(231.81238,149.56787) rotate(177.9212) scale(2.04472,2.32015) skewX(0)" font-size="40" xml:space="preserve" fill="#000000" fill-rule="nonzero" stroke="none" stroke-width="1" stroke-linecap="butt" stroke-linejoin="miter" stroke-miterlimit="10" stroke-dasharray="" stroke-dashoffset="0" font-family="Sans Serif" font-weight="normal" text-anchor="start" style="mix-blend-mode: normal"><tspan x="0" dy="0">V</tspan></text><text transform="translate(196.87645,148.57758) rotate(-175.37513) scale(2.04471,2.32015) skewX(0)" font-size="40" xml:space="preserve" fill="#000000" fill-rule="nonzero" stroke="none" stroke-width="1" stroke-linecap="butt" stroke-linejoin="miter" stroke-miterlimit="10" stroke-dasharray="" stroke-dashoffset="0" font-family="Sans Serif" font-weight="normal" text-anchor="start" style="mix-blend-mode: normal"><tspan x="0" dy="0">V</tspan></text><text transform="translate(163.5,153) scale(2.04472,2.32015)" font-size="40" xml:space="preserve" fill="#000000" fill-rule="nonzero" stroke="none" stroke-width="1" stroke-linecap="butt" stroke-linejoin="miter" stroke-miterlimit="10" stroke-dasharray="" stroke-dashoffset="0" font-family="Sans Serif" font-weight="normal" text-anchor="start" style="mix-blend-mode: normal"><tspan x="0" dy="0">V</tspan></text><text transform="translate(204.5,150) scale(2.04472,2.32015)" font-size="40" xml:space="preserve" fill="#000000" fill-rule="nonzero" stroke="none" stroke-width="1" stroke-linecap="butt" stroke-linejoin="miter" stroke-miterlimit="10" stroke-dasharray="" stroke-dashoffset="0" font-family="Sans Serif" font-weight="normal" text-anchor="start" style="mix-blend-mode: normal"><tspan x="0" dy="0">V</tspan></text><path d="M152.5,71v-46h26v46z" fill="#000000" stroke="none" stroke-width="0" stroke-linecap="butt"/><path d="M197.5,70v-44h30v44z" fill="#000000" stroke="none" stroke-width="0" stroke-linecap="butt"/><path d="M178.47871,290.39129c-12.11748,-0.78371 -21.65845,-10.076 -23.17637,-21.67705c-2.40244,0.58434 -4.933,0.81933 -7.53061,0.65132c-13.77833,-0.89114 -24.22547,-12.78309 -23.33433,-26.56142c0.02866,-0.44315 0.0687,-0.88287 0.11982,-1.31886c-1.32433,0.12787 -2.6763,0.15143 -4.04694,0.06278c-13.77833,-0.89113 -24.22546,-12.78309 -23.33433,-26.56142c0.04381,-0.67745 0.11423,-1.34684 0.21015,-2.00723c-13.32185,-1.3466 -23.28874,-13.01445 -22.41748,-26.48548c0.17852,-2.7601 0.79848,-5.38652 1.78663,-7.8149c-10.33116,-3.61012 -17.42669,-13.76098 -16.68584,-25.21559c0.1954,-3.02122 0.91973,-5.88226 2.07689,-8.49873c-6.0636,-4.93287 -9.72934,-12.62717 -9.18641,-21.02168c0.89114,-13.77833 12.78309,-24.22546 26.56142,-23.33433c13.77833,0.89114 24.22546,12.78309 23.33433,26.56142c-0.1954,3.02122 -0.91973,5.88226 -2.07689,8.49873c6.0636,4.93287 9.72935,12.62717 9.18642,21.02168c-0.17852,2.7601 -0.79848,5.38652 -1.78663,7.8149c10.33116,3.61012 17.42668,13.76098 16.68584,25.21559c-0.04381,0.67745 -0.11422,1.34684 -0.21014,2.00723c13.32185,1.3466 23.28873,13.01445 22.41747,26.48548c-0.02866,0.44315 -0.0687,0.88286 -0.11982,1.31886c1.32433,-0.12787 2.6763,-0.15142 4.04694,-0.06277c12.11748,0.78372 21.65844,10.076 23.17637,21.67704c2.40244,-0.58434 4.93301,-0.81933 7.53062,-0.65132c13.77833,0.89113 24.22546,12.78309 23.33433,26.56142c-0.89113,13.77833 -12.78309,24.22547 -26.56142,23.33433z" data-paper-data="{&quot;index&quot;:null}" fill="#fffd00" stroke="none" stroke-width="0.5" stroke-linecap="butt"/><path d="M214.52129,-41.39129c12.11748,0.78371 21.65845,10.076 23.17637,21.67705c2.40244,-0.58434 4.933,-0.81933 7.53061,-0.65132c13.77833,0.89114 24.22547,12.78309 23.33433,26.56142c-0.02866,0.44315 -0.0687,0.88287 -0.11982,1.31886c1.32433,-0.12787 2.6763,-0.15143 4.04694,-0.06278c13.77833,0.89113 24.22546,12.78309 23.33433,26.56142c-0.04381,0.67745 -0.11423,1.34684 -0.21015,2.00723c13.32185,1.3466 23.28874,13.01445 22.41748,26.48548c-0.17852,2.7601 -0.79848,5.38652 -1.78663,7.8149c10.33116,3.61012 17.42669,13.76098 16.68584,25.21559c-0.1954,3.02122 -0.91973,5.88226 -2.07689,8.49873c6.0636,4.93287 9.72934,12.62718 9.18641,21.02168c-0.89114,13.77833 -12.78309,24.22546 -26.56142,23.33433c-13.77833,-0.89114 -24.22546,-12.78309 -23.33433,-26.56142c0.1954,-3.02122 0.91973,-5.88226 2.07689,-8.49873c-6.0636,-4.93287 -9.72935,-12.62717 -9.18642,-21.02168c0.17852,-2.7601 0.79848,-5.38652 1.78663,-7.8149c-10.33116,-3.61012 -17.42668,-13.76098 -16.68584,-25.21559c0.04381,-0.67745 0.11422,-1.34684 0.21014,-2.00723c-13.32185,-1.3466 -23.28873,-13.01445 -22.41747,-26.48548c0.02866,-0.44315 0.0687,-0.88286 0.11982,-1.31886c-1.32433,0.12787 -2.6763,0.15142 -4.04694,0.06277c-12.11748,-0.78372 -21.65844,-10.076 -23.17637,-21.67704c-2.40244,0.58434 -4.93301,0.81933 -7.53062,0.65132c-13.77833,-0.89113 -24.22546,-12.78309 -23.33433,-26.56142c0.89113,-13.77833 12.78309,-24.22547 26.56142,-23.33433z" data-paper-data="{&quot;index&quot;:null}" fill="#fffd00" stroke="none" stroke-width="0.5" stroke-linecap="butt"/><path d="M208.04013,-18.05696c0.89114,13.77833 -9.556,25.67029 -23.33433,26.56142c-2.59761,0.168 -5.12817,-0.06699 -7.53062,-0.65132c-1.51792,11.60105 -11.05889,20.89333 -23.17637,21.67704c-1.37064,0.08865 -2.72261,0.0651 -4.04694,-0.06277c0.05112,0.43599 0.09116,0.8757 0.11982,1.31886c0.87126,13.47102 -9.09562,25.13888 -22.41747,26.48548c0.09592,0.66039 0.16632,1.32978 0.21014,2.00723c0.74084,11.45461 -6.35467,21.60548 -16.68584,25.21559c0.98814,2.42838 1.60811,5.0548 1.78663,7.8149c0.54293,8.39451 -3.12281,16.08882 -9.18642,21.02168c1.15716,2.61647 1.88149,5.47751 2.07689,8.49873c0.89114,13.77833 -9.556,25.67028 -23.33433,26.56142c-13.77833,0.89113 -25.67028,-9.556 -26.56142,-23.33433c-0.54293,-8.39451 3.12281,-16.08881 9.18641,-21.02168c-1.15716,-2.61647 -1.88149,-5.47751 -2.07689,-8.49872c-0.74084,-11.45461 6.35468,-21.60547 16.68584,-25.21559c-0.98814,-2.42838 -1.60811,-5.0548 -1.78663,-7.8149c-0.87126,-13.47102 9.09563,-25.13888 22.41748,-26.48548c-0.09592,-0.66039 -0.16633,-1.32978 -0.21015,-2.00723c-0.89114,-13.77833 9.556,-25.67029 23.33433,-26.56142c1.37064,-0.08865 2.72261,-0.06509 4.04694,0.06278c-0.05112,-0.43599 -0.09116,-0.87571 -0.11982,-1.31886c-0.89114,-13.77833 9.556,-25.67028 23.33433,-26.56142c2.59761,-0.168 5.12817,0.06699 7.53061,0.65132c1.51792,-11.60105 11.0589,-20.89333 23.17637,-21.67705c13.77833,-0.89114 25.67029,9.556 26.56142,23.33433z" data-paper-data="{&quot;index&quot;:null}" fill="#fffd00" stroke="none" stroke-width="0.5" stroke-linecap="butt"/><path d="M252.5,83.5l-19,123" fill="none" stroke="#000000" stroke-width="5" stroke-linecap="round"/><path d="M144.5,203.5l-20,-109" fill="none" stroke="#000000" stroke-width="5" stroke-linecap="round"/><text transform="translate(347.5,126.75) scale(0.83059,1.51842)" font-size="40" xml:space="preserve" fill="#ff0000" fill-rule="nonzero" stroke="none" stroke-width="1" stroke-linecap="butt" stroke-linejoin="miter" stroke-miterlimit="10" stroke-dasharray="" stroke-dashoffset="0" font-family="Sans Serif" font-weight="normal" text-anchor="start" style="mix-blend-mode: normal"><tspan x="0" dy="0">EVIL</tspan><tspan x="0" dy="46.15px">LAUGH</tspan></text></g></g></svg>