<svg version="1.1" xmlns="http://www.w3.org/2000/svg" xmlns:xlink="http://www.w3.org/1999/xlink" width="116.86707" height="163.1922" viewBox="0,0,116.86707,163.1922"><g transform="translate(-188.21912,-93.57919)"><g data-paper-data="{&quot;isPaintingLayer&quot;:true}" fill-rule="nonzero" stroke-linejoin="miter" stroke-miterlimit="10" stroke-dasharray="" stroke-dashoffset="0" style="mix-blend-mode: normal"><path d="M270.5,125l-30,-31l-25,47l16,3l15,-30l7,16z" fill="#ffe8ce" stroke="#000000" stroke-width="0.5" stroke-linecap="round"/><path d="M249.5,132l23,-9l32,13l-13,7l-6,29l-21,-16l-18,5z" fill="#ff8800" stroke="#000000" stroke-width="0.5" stroke-linecap="round"/><path d="M242.5,159.5c0,13.53098 -10.29745,24.5 -23,24.5c-12.70255,0 -23,-10.96902 -23,-24.5c0,-13.53098 10.29745,-24.5 23,-24.5c12.70255,0 23,10.96902 23,24.5z" fill="#000000" stroke="none" stroke-width="0" stroke-linecap="butt"/><text transform="translate(188.5,243.75) scale(0.56175,1.04171)" font-size="40" xml:space="preserve" fill="#000000" fill-rule="nonzero" stroke="none" stroke-width="1" stroke-linecap="butt" stroke-linejoin="miter" stroke-miterlimit="10" stroke-dasharray="" stroke-dashoffset="0" font-family="Sans Serif" font-weight="normal" text-anchor="start" style="mix-blend-mode: normal"><tspan x="0" dy="0">Bomb</tspan></text></g></g></svg>