<svg version="1.1" xmlns="http://www.w3.org/2000/svg" xmlns:xlink="http://www.w3.org/1999/xlink" width="105.28125" height="138.01374" viewBox="0,0,105.28125,138.01374"><g transform="translate(-200.25,-35.25)"><g data-paper-data="{&quot;isPaintingLayer&quot;:true}" fill-rule="nonzero" stroke-linejoin="miter" stroke-miterlimit="10" stroke-dasharray="" stroke-dashoffset="0" style="mix-blend-mode: normal"><path d="M282.5,104.45192c0,20.73723 -14.10303,37.54808 -31.5,37.54808c-17.39697,0 -31.5,-16.81085 -31.5,-37.54808c0,-20.73723 14.10303,-37.54808 31.5,-37.54808c17.39697,0 31.5,16.81085 31.5,37.54808z" fill="#ff00e4" stroke="none" stroke-width="0" stroke-linecap="butt"/><path d="M213.5,105h73l-30,67l-12,1z" fill="#becc82" stroke="#000000" stroke-width="0.5" stroke-linecap="round"/><path d="M221.5,126l19,-22" fill="none" stroke="#000000" stroke-width="0.5" stroke-linecap="round"/><path d="M256.5,172l-25,-28l41,-38" fill="none" stroke="#000000" stroke-width="0.5" stroke-linecap="round"/><path d="M239.5,160l34,-24" fill="none" stroke="#000000" stroke-width="0.5" stroke-linecap="round"/><path d="M221.5,105l44,45" fill="none" stroke="#000000" stroke-width="0.5" stroke-linecap="round"/><path d="M246.5,106l31,20" fill="none" stroke="#000000" stroke-width="0.5" stroke-linecap="round"/><path d="M221,116c0,-0.12255 0.00882,-0.24305 0.02586,-0.36088l-1.02586,-1.63912c0,-3 0,-6 0,-9c0,0 0,-2.5 2.5,-2.5c1.08259,0 1.69638,0.4688 2.04438,1.00039c0.59621,0.01038 1.14153,0.22946 1.56603,0.58732c0.16398,-0.43381 0.49601,-0.86704 1.10335,-1.23144c0.95998,-0.57599 1.748,-0.46416 2.32557,-0.16503c0.29576,-0.12321 0.62027,-0.19124 0.96067,-0.19124c0.35311,0 0.68913,0.07321 0.99369,0.20528c0.53402,-0.20528 1.00631,-0.20528 1.00631,-0.20528c2.2553,0.01568 4.4608,-0.66978 6.69454,-0.98127c4.8862,-0.68137 10.36646,-0.01873 15.30546,-0.01873c5,0 10,0 15,0c3,0 6,0 9,0c1,0 2,0 3,0h1c0,0 2.5,0 2.5,2.5c0,2.5 -2.5,2.5 -2.5,2.5c-0.49706,0 -0.99717,0 -1.5,0c0,3.5 0,7 0,10.5v1c0,0 0,2.5 -2.5,2.5c-2.5,0 -2.5,-2.5 -2.5,-2.5c0,-3.53011 0,-7.72386 0,-11.5c-1.32463,0 -2.65985,0 -4,0c0,6.16667 0,12.33333 0,18.5v1c0,0 0,2.5 -2.5,2.5c-2.5,0 -2.5,-2.5 -2.5,-2.5c0,-6.17934 0,-13.13794 0,-19.5c-2.70101,0 -5.39351,0 -8.03144,0c0.30105,0.90314 0.6021,1.80629 0.90314,2.70943l0.12829,1.79057c0,0 0,2.5 -2.5,2.5c-2.5,0 -2.5,-2.5 -2.5,-2.5l0.12829,-0.20943c-0.33333,-1 -0.66667,-2 -1,-3c0,0 -0.19919,-0.59757 -0.09765,-1.29279c-1.62791,-0.01509 -3.32231,-0.10433 -5.0319,-0.184c-0.02592,3.30327 -0.43991,7.07474 -0.03103,10.28577c0.13315,1.04565 0.83216,1.95936 1,3c0.39278,2.43537 0.03228,4.93361 0.03228,7.40046v3c0,0 0,2.5 -2.5,2.5c-2.5,0 -2.5,-2.5 -2.5,-2.5v-3c0,-2.19987 0.40691,-4.4318 0.03228,-6.59954c-0.17951,-1.0387 -0.87144,-1.95378 -1,-3c-0.39144,-3.18546 -0.11435,-6.80222 -0.0463,-10.13416c-0.13294,1.25551 -1.19523,2.23371 -2.48598,2.23371c-1.38071,0 -2.5,-1.11929 -2.5,-2.5c0,-0.1349 0.01068,-0.26731 0.03125,-0.39642c-0.38874,0.0653 -0.77718,0.13554 -1.16557,0.20694c-0.33667,0.98289 -1.26866,1.68947 -2.36568,1.68947c-0.83424,0 -1.57305,-0.40862 -2.02718,-1.03664c-0.27246,0.01841 -0.54537,0.03049 -0.81881,0.03494c0.59636,1.3245 1.07114,2.69385 1.31551,4.11248l0.03048,2.38922c0,0 0,2.5 -2.5,2.5c-2.5,0 -2.5,-2.5 -2.5,-2.5l0.03048,-1.61078c-0.26368,-1.9259 -1.22412,-3.70557 -2.23873,-5.3887c-0.32143,0.73521 -0.98628,1.28597 -1.79175,1.44947c0,1.84994 0,3.69988 0,5.54983c0.00002,0.00001 0.00003,0.00003 0.00005,0.00004l0.26772,-0.76762c0,0 1.08351,1.08351 0.7057,2.40225c0.01748,0.11931 0.02653,0.24135 0.02653,0.36551c0,0.35851 -0.07546,0.6994 -0.21137,1.00764c0.05697,0.12345 0.08308,0.20179 0.08308,0.20179c0.70585,2.18329 1.10651,4.49612 1.12829,6.79057l0.73607,0.88197c0,0 1.11803,2.23607 -1.11803,3.3541c-2.23607,1.11803 -3.3541,-1.11803 -3.3541,-1.11803l-1.26393,-3.11803c0.02186,-1.76048 -0.29547,-3.54578 -0.87171,-5.20943c0,0 -0.31766,-0.95297 0.05382,-1.85212c-0.11743,-0.28977 -0.18211,-0.60655 -0.18211,-0.93845zM243.86497,106.1874c0.06912,0.20119 0.11328,0.41399 0.1288,0.63468c0.00308,-0.21351 0.00512,-0.4257 0.00589,-0.63637c-0.04492,0.0005 -0.08982,0.00106 -0.13469,0.00169z" fill="#ff00e4" stroke="none" stroke-width="0.5" stroke-linecap="butt"/><text transform="translate(200.5,57) scale(0.5,0.5)" font-size="40" xml:space="preserve" fill="#00fff9" fill-rule="nonzero" stroke="none" stroke-width="1" stroke-linecap="butt" stroke-linejoin="miter" stroke-miterlimit="10" stroke-dasharray="" stroke-dashoffset="0" font-family="Sans Serif" font-weight="normal" text-anchor="start" style="mix-blend-mode: normal"><tspan x="0" dy="0">nice cream</tspan></text><path d="M231,83c0,-1.38071 1.11929,-2.5 2.5,-2.5c1.38071,0 2.5,1.11929 2.5,2.5c0,1.38071 -1.11929,2.5 -2.5,2.5c-1.38071,0 -2.5,-1.11929 -2.5,-2.5z" fill="#00fff9" stroke="none" stroke-width="0.5" stroke-linecap="butt"/><path d="M245,82c0,-1.38071 1.11929,-2.5 2.5,-2.5c1.38071,0 2.5,1.11929 2.5,2.5c0,1.38071 -1.11929,2.5 -2.5,2.5c-1.38071,0 -2.5,-1.11929 -2.5,-2.5z" fill="#00fff9" stroke="none" stroke-width="0.5" stroke-linecap="butt"/><path d="M253.26777,93.23223c1.76777,1.76777 0,3.53553 0,3.53553l-2.81106,2.54193c-1.1023,0.05302 -6.05871,0.36744 -7.35716,0.15802c-1.04064,-0.16784 -1.9613,-0.82049 -3,-1c-2.70673,-0.46778 -5.84874,0.16947 -8.59954,0.03228c-2.15698,-0.10758 -4.5795,0.58696 -6.46178,-0.47189c-1.35036,-0.75963 -1.27329,-2.82502 -1.90993,-4.23754c0,0 -0.79057,-2.37171 1.58114,-3.16228c2.37171,-0.79057 3.16228,1.58114 3.16228,1.58114c0.03002,0.58749 -0.46417,1.56532 0.09007,1.76246c2.05872,0.73228 4.35315,-0.47189 6.53822,-0.47189c4.85571,0 9.25849,0.74467 14.04329,1.1903l1.18894,-1.45807c0,0 1.76777,-1.76777 3.53553,0z" fill="#00fff9" stroke="none" stroke-width="0.5" stroke-linecap="butt"/></g></g></svg>