<svg version="1.1" xmlns="http://www.w3.org/2000/svg" xmlns:xlink="http://www.w3.org/1999/xlink" width="116.28125" height="102.75" viewBox="0,0,116.28125,102.75"><g transform="translate(-127.25,-43.25)"><g data-paper-data="{&quot;isPaintingLayer&quot;:true}" fill-rule="nonzero" stroke-linecap="butt" stroke-linejoin="miter" stroke-miterlimit="10" stroke-dasharray="" stroke-dashoffset="0" style="mix-blend-mode: normal"><path d="M213.5,134c0,2.20914 -4.92487,4 -11,4c-6.07513,0 -11,-1.79086 -11,-4c0,-2.20914 4.92487,-4 11,-4c6.07513,0 11,1.79086 11,4z" fill="#ffffff" stroke="#000000" stroke-width="2"/><path d="M162.5,126c0,2.20914 -4.92487,4 -11,4c-6.07513,0 -11,-1.79086 -11,-4c0,-2.20914 4.92487,-4 11,-4c6.07513,0 11,1.79086 11,4z" fill="#ffffff" stroke="#000000" stroke-width="2"/><path d="M231.5,113c0,2.20914 -4.92487,4 -11,4c-6.07513,0 -11,-1.79086 -11,-4c0,-2.20914 4.92487,-4 11,-4c6.07513,0 11,1.79086 11,4z" fill="#ffffff" stroke="#000000" stroke-width="2"/><path d="M167.5,102c0,2.20914 -4.92487,4 -11,4c-6.07513,0 -11,-1.79086 -11,-4c0,-2.20914 4.92487,-4 11,-4c6.07513,0 11,1.79086 11,4z" fill="#ffffff" stroke="#000000" stroke-width="2"/><path d="M202.5,87c0,2.20914 -4.92487,4 -11,4c-6.07513,0 -11,-1.79086 -11,-4c0,-2.20914 4.92487,-4 11,-4c6.07513,0 11,1.79086 11,4z" fill="#ffffff" stroke="#000000" stroke-width="2"/><path d="M163.5,113c0,2.20914 -4.92487,4 -11,4c-6.07513,0 -11,-1.79086 -11,-4c0,-2.20914 4.92487,-4 11,-4c6.07513,0 11,1.79086 11,4z" fill="#ffffff" stroke="#000000" stroke-width="2"/><path d="M178.5,141c0,2.20914 -4.92487,4 -11,4c-6.07513,0 -11,-1.79086 -11,-4c0,-2.20914 4.92487,-4 11,-4c6.07513,0 11,1.79086 11,4z" fill="#ffffff" stroke="#000000" stroke-width="2"/><path d="M177.5,89c0,2.20914 -4.92487,4 -11,4c-6.07513,0 -11,-1.79086 -11,-4c0,-2.20914 4.92487,-4 11,-4c6.07513,0 11,1.79086 11,4z" fill="#ffffff" stroke="#000000" stroke-width="2"/><path d="M227.5,98c0,2.20914 -4.92487,4 -11,4c-6.07513,0 -11,-1.79086 -11,-4c0,-2.20914 4.92487,-4 11,-4c6.07513,0 11,1.79086 11,4z" fill="#ffffff" stroke="#000000" stroke-width="2"/><text transform="translate(127.5,65) scale(0.5,0.5)" font-size="40" xml:space="preserve" fill="#ff0000" fill-rule="nonzero" stroke="none" stroke-width="1" stroke-linecap="butt" stroke-linejoin="miter" stroke-miterlimit="10" stroke-dasharray="" stroke-dashoffset="0" font-family="Sans Serif" font-weight="normal" text-anchor="start" style="mix-blend-mode: normal"><tspan x="0" dy="0">pelit sercull </tspan></text></g></g></svg>