<svg version="1.1" xmlns="http://www.w3.org/2000/svg" xmlns:xlink="http://www.w3.org/1999/xlink" width="196.4913" height="194.34505" viewBox="0,0,196.4913,194.34505"><defs><radialGradient cx="318.16031" cy="202.32004" r="30.20735" gradientUnits="userSpaceOnUse" id="color-1"><stop offset="0" stop-color="#ff0000"/><stop offset="1" stop-color="#425356"/></radialGradient><radialGradient cx="317.83141" cy="238.52345" r="30.20735" gradientUnits="userSpaceOnUse" id="color-2"><stop offset="0" stop-color="#ff0000"/><stop offset="1" stop-color="#425356"/></radialGradient><radialGradient cx="266.12228" cy="180.07419" r="30.20735" gradientUnits="userSpaceOnUse" id="color-3"><stop offset="0" stop-color="#ff0000"/><stop offset="1" stop-color="#425356"/></radialGradient><radialGradient cx="325.35335" cy="132.96422" r="30.20735" gradientUnits="userSpaceOnUse" id="color-4"><stop offset="0" stop-color="#ff0000"/><stop offset="1" stop-color="#425356"/></radialGradient><radialGradient cx="325.02444" cy="169.16762" r="30.20735" gradientUnits="userSpaceOnUse" id="color-5"><stop offset="0" stop-color="#ff0000"/><stop offset="1" stop-color="#425356"/></radialGradient><radialGradient cx="273.31532" cy="110.71836" r="30.20735" gradientUnits="userSpaceOnUse" id="color-6"><stop offset="0" stop-color="#ff0000"/><stop offset="1" stop-color="#425356"/></radialGradient><radialGradient cx="261.27251" cy="210.61213" r="30.20735" gradientUnits="userSpaceOnUse" id="color-7"><stop offset="0" stop-color="#ff0000"/><stop offset="1" stop-color="#425356"/></radialGradient><radialGradient cx="260.94361" cy="246.81554" r="30.20735" gradientUnits="userSpaceOnUse" id="color-8"><stop offset="0" stop-color="#ff0000"/><stop offset="1" stop-color="#425356"/></radialGradient><radialGradient cx="209.23449" cy="188.36628" r="30.20735" gradientUnits="userSpaceOnUse" id="color-9"><stop offset="0" stop-color="#ff0000"/><stop offset="1" stop-color="#425356"/></radialGradient></defs><g transform="translate(-157.75,-80.67566)"><g data-paper-data="{&quot;isPaintingLayer&quot;:true}" fill="#ff0000" fill-rule="nonzero" stroke-linejoin="miter" stroke-miterlimit="10" stroke-dasharray="" stroke-dashoffset="0" style="mix-blend-mode: normal"><g stroke-width="2.5" stroke-linecap="round"><path d="M294.42672,172.98439l25.81723,37.63887l22.42078,17.9877l-30.92845,-4.59011l-18.46337,-29.94535l7.29979,-10.4635z" stroke="url(#color-1)"/><path d="M294.09781,209.1878l25.81723,37.63887l22.42078,17.9877l-30.92845,-4.59011l-18.46337,-29.94535l7.29979,-10.4635z" stroke="url(#color-2)"/><path d="M242.38869,150.73854l25.81723,37.63887l22.42078,17.9877l-30.92845,-4.59011l-18.46337,-29.94535l7.29979,-10.4635z" stroke="url(#color-3)"/><path d="M301.61975,103.62857l25.81724,37.63887l22.42078,17.9877l-30.92845,-4.59011l-18.46337,-29.94535l7.29979,-10.4635z" stroke="url(#color-4)"/><path d="M301.29085,139.83197l25.81723,37.63887l22.42078,17.98769l-30.92845,-4.59011l-18.46337,-29.94535l7.29979,-10.4635z" stroke="url(#color-5)"/><path d="M249.58172,81.38271l25.81723,37.63887l22.42078,17.98769l-30.92845,-4.59011l-18.46337,-29.94535l7.29979,-10.4635z" stroke="url(#color-6)"/><path d="M237.53891,181.27648l25.81724,37.63887l22.42078,17.9877l-30.92845,-4.59011l-18.46337,-29.94535l7.29979,-10.4635z" stroke="url(#color-7)"/><path d="M237.21001,217.47989l25.81723,37.63887l22.42078,17.98769l-30.92845,-4.59011l-18.46337,-29.94535l7.29979,-10.4635z" stroke="url(#color-8)"/><path d="M185.50089,159.03063l25.81723,37.63887l22.42078,17.98769l-30.92845,-4.59011l-18.46337,-29.94535l7.29979,-10.4635z" stroke="url(#color-9)"/></g><text transform="translate(158,119.5) scale(0.5,0.5)" font-size="40" xml:space="preserve" fill="#ff0000" fill-rule="nonzero" stroke="none" stroke-width="1" stroke-linecap="butt" stroke-linejoin="miter" stroke-miterlimit="10" stroke-dasharray="" stroke-dashoffset="0" font-family="Sans Serif" font-weight="normal" text-anchor="start" style="mix-blend-mode: normal"><tspan x="0" dy="0">KNIFE</tspan><tspan x="0" dy="46.15px">MARE</tspan></text></g></g></svg>