<svg version="1.1" xmlns="http://www.w3.org/2000/svg" xmlns:xlink="http://www.w3.org/1999/xlink" width="156" height="163.43927" viewBox="0,0,156,163.43927"><g transform="translate(-105.5,-31.56075)"><g data-paper-data="{&quot;isPaintingLayer&quot;:true}" fill-rule="nonzero" stroke-linejoin="miter" stroke-miterlimit="10" stroke-dasharray="" stroke-dashoffset="0" style="mix-blend-mode: normal"><path d="M106.5,194.00001v-62h154v62z" fill="#ffffff" stroke="#000000" stroke-width="2" stroke-linecap="butt"/><path d="M197.8121,162.89281c0,6.3513 -6.0441,11.5 -13.5,11.5c-7.4558,0 -13.5,-5.1487 -13.5,-11.5c0,-6.3513 6.0442,-11.5 13.5,-11.5c7.4559,0 13.5,5.1487 13.5,11.5z" fill="#ffffff" stroke="#000000" stroke-width="2" stroke-linecap="butt"/><text transform="translate(119.5,73.75) scale(1.39952,1.04171)" font-size="40" xml:space="preserve" fill="#ffffff" fill-rule="nonzero" stroke="none" stroke-width="1" stroke-linecap="butt" stroke-linejoin="miter" stroke-miterlimit="10" stroke-dasharray="" stroke-dashoffset="0" font-family="Marker" font-weight="normal" text-anchor="start" style="mix-blend-mode: normal"><tspan x="0" dy="0">slem</tspan></text><path d="M250.2825,175.54261l-35.8717,-37.3982" fill="none" stroke="#000000" stroke-width="2" stroke-linecap="round"/><path d="M130.4556,177.83231l74.7964,-32.0556" fill="none" stroke="#000000" stroke-width="2" stroke-linecap="round"/><path d="M124.3498,168.67351l-5.3426,-28.2394" fill="none" stroke="#000000" stroke-width="2" stroke-linecap="round"/><path d="M133.5085,138.90761l87.0081,38.1614" fill="none" stroke="#000000" stroke-width="2" stroke-linecap="round"/><path d="M206.7785,170.96321l38.1614,14.5013l-51.8995,-6.869" fill="none" stroke="#000000" stroke-width="2" stroke-linecap="round"/><text transform="translate(79.53798,92.41068) scale(0.5,0.5)" font-size="40" xml:space="preserve" fill="#ffffff" fill-rule="nonzero" stroke="none" stroke-width="1" stroke-linecap="butt" stroke-linejoin="miter" stroke-miterlimit="10" stroke-dasharray="" stroke-dashoffset="0" font-family="Marker" font-weight="normal" text-anchor="start" style="mix-blend-mode: normal"><tspan x="0" dy="0"> </tspan></text></g></g></svg>