<svg version="1.1" xmlns="http://www.w3.org/2000/svg" xmlns:xlink="http://www.w3.org/1999/xlink" width="156" height="156.14729" viewBox="0,0,156,156.14729"><g transform="translate(-105.5,-38.85271)"><g data-paper-data="{&quot;isPaintingLayer&quot;:true}" fill-rule="nonzero" stroke-linejoin="miter" stroke-miterlimit="10" stroke-dasharray="" stroke-dashoffset="0" style="mix-blend-mode: normal"><path d="M106.5,194v-62h154v62z" fill="#ffffff" stroke="#000000" stroke-width="2" stroke-linecap="butt"/><path d="M197.81211,162.89282c0,6.35127 -6.04415,11.5 -13.5,11.5c-7.45585,0 -13.5,-5.14873 -13.5,-11.5c0,-6.35127 6.04415,-11.5 13.5,-11.5c7.45585,0 13.5,5.14873 13.5,11.5z" fill="#ffffff" stroke="#000000" stroke-width="2" stroke-linecap="butt"/><text transform="translate(119.5,73.75) scale(1.39952,1.04171)" font-size="40" xml:space="preserve" fill="#ff0000" fill-rule="nonzero" stroke="none" stroke-width="1" stroke-linecap="butt" stroke-linejoin="miter" stroke-miterlimit="10" stroke-dasharray="" stroke-dashoffset="0" font-family="Marker" font-weight="normal" text-anchor="start" style="mix-blend-mode: normal"><tspan x="0" dy="0">slam</tspan></text><path d="M214.41076,138.14439l35.87175,37.3982" fill="none" stroke="#000000" stroke-width="2" stroke-linecap="round"/><path d="M205.25202,145.77667l-74.79641,32.0556" fill="none" stroke="#000000" stroke-width="2" stroke-linecap="round"/><path d="M124.34978,168.67353l-5.3426,-28.23946" fill="none" stroke="#000000" stroke-width="2" stroke-linecap="round"/><path d="M133.50852,138.90761l87.00807,38.16143" fill="none" stroke="#000000" stroke-width="2" stroke-linecap="round"/><path d="M193.04036,178.5955l51.89955,6.86906l-38.16143,-14.50134" fill="none" stroke="#000000" stroke-width="2" stroke-linecap="round"/></g></g></svg>