<svg xmlns="http://www.w3.org/2000/svg" xmlns:xlink="http://www.w3.org/1999/xlink" version="1.1" width="116.86707" height="163.1922" viewBox="0,0,116.86707,163.1922"><g><g data-paper-data="{&quot;isPaintingLayer&quot;:true}" fill-rule="nonzero" stroke-linejoin="miter" stroke-miterlimit="10" stroke-dasharray="" stroke-dashoffset="0" style="mix-blend-mode: normal"><path d="M 82.2809 31.4208 L 52.2809 0.4208 L 27.2809 47.4208 L 43.2809 50.4208 L 58.2809 20.4208 L 65.2809 36.4208 Z " fill="#ffe8ce" stroke="#000000" stroke-width="0.5" stroke-linecap="round"/><path d="M 61.2809 38.4208 L 84.2809 29.4208 L 116.2809 42.4208 L 103.2809 49.4208 L 97.2809 78.4208 L 76.2809 62.4208 L 58.2809 67.4208 Z " fill="#ff8800" stroke="#000000" stroke-width="0.5" stroke-linecap="round"/><path d="M242.5,159.5c0,13.53098 -10.29745,24.5 -23,24.5c-12.70255,0 -23,-10.96902 -23,-24.5c0,-13.53098 10.29745,-24.5 23,-24.5c12.70255,0 23,10.96902 23,24.5z" fill="#000000" stroke="none" stroke-width="0" stroke-linecap="butt" transform="matrix(1,0,0,1,-188.21912,-93.57919)"/><text transform="matrix(0.56175,0,0,1.04171,0.28087999999999624,150.17081000000002)" font-size="40" xml:space="preserve" fill="#000000" fill-rule="nonzero" stroke="none" stroke-width="1" stroke-linecap="butt" stroke-linejoin="miter" stroke-miterlimit="10" stroke-dasharray="" stroke-dashoffset="0" font-family="Sans Serif" font-weight="normal" text-anchor="start" style="mix-blend-mode: normal"><tspan x="0" dy="0">Bomb</tspan></text></g></g></svg>