<svg version="1.1" xmlns="http://www.w3.org/2000/svg" xmlns:xlink="http://www.w3.org/1999/xlink" width="266.9039" height="428.56156" viewBox="0,0,266.9039,428.56156"><g transform="translate(-62.69443,40.12754)"><g data-paper-data="{&quot;isPaintingLayer&quot;:true}" fill-rule="nonzero" stroke="none" stroke-linecap="butt" stroke-linejoin="miter" stroke-miterlimit="10" stroke-dasharray="" stroke-dashoffset="0" style="mix-blend-mode: normal"><path d="M62.69443,388.43402v-428.56156h266.9039v428.56156z" fill="#ff0000" stroke-width="0"/><path d="M143.95109,144.06164c0,-3.03757 2.46243,-5.5 5.5,-5.5c3.03757,0 5.5,2.46243 5.5,5.5c0,3.03757 -2.46243,5.5 -5.5,5.5c-3.03757,0 -5.5,-2.46243 -5.5,-5.5z" fill="#000000" stroke-width="0.5"/><path d="M190.49764,144.06164c0,-3.03757 2.46243,-5.5 5.5,-5.5c3.03757,0 5.5,2.46243 5.5,5.5c0,3.03757 -2.46243,5.5 -5.5,5.5c-0.92268,0 -1.7923,-0.22721 -2.55596,-0.62872c0.33823,0.69593 0.54845,1.56097 0.54845,2.63623c0,5.5 -5.5,5.5 -5.5,5.5c-10.01001,0 -21.52152,0 -31.53153,0c0,0 -5.5,0 -5.5,-5.5c0,-5.5 5.5,-5.5 5.5,-5.5c10.01001,0 20.02002,0 30.03003,0h1.5015c0,0 1.34014,0 2.69738,0.66152c-0.43952,-0.79042 -0.68988,-1.70049 -0.68988,-2.66903z" fill="#000000" stroke-width="0.5"/><path d="M155.4571,39.46104c4,0 4,4 4,4v1.5015c-0.03567,0.69466 -0.07134,1.38933 -0.107,2.08399c0.85254,1.53312 2.64006,4.63239 3.003,6.00601c0.25572,0.96779 -0.24278,2.03189 0,3.003c0.27143,1.08574 1.23238,1.91669 1.5015,3.003c0.26305,1.06182 -0.15914,2.2086 0.05535,3.28129c0.31034,1.552 1.20515,2.94977 1.5015,4.5045c0.37486,1.96659 -0.41358,4.04719 0,6.00601c0.86715,4.107 2.21755,7.89133 3.003,12.01201c0.37486,1.96659 -0.41358,4.04719 0,6.00601c0.32697,1.54858 1.19459,2.95183 1.5015,4.5045c0.16079,0.81342 -0.43617,1.71809 -0.11998,2.4846c0.68815,1.66822 2.51442,2.76732 3.003,4.5045c0.60268,2.14283 -0.13953,4.46827 0.14166,6.67641c0.2401,1.88551 0.94136,3.68306 1.41204,5.5246c0,0 0.97014,3.88057 -2.91043,4.85071c-1.02153,0.25538 -1.84138,0.17463 -2.49494,-0.08299c-0.47036,0.13093 -0.96611,0.20092 -1.47821,0.20092c-3.03757,0 -5.5,-2.46243 -5.5,-5.5c0,-2.13779 1.21967,-3.9907 3.00111,-4.90086c0.06021,-1.49383 0.58644,-3.02536 0.17203,-4.45052c-0.50387,-1.73281 -2.34861,-2.82275 -3.003,-4.5045c-0.4259,-1.09454 0.1126,-2.37019 -0.11998,-3.52141c-0.31343,-1.55138 -1.20515,-2.94977 -1.5015,-4.5045c-0.37486,-1.96659 0.41358,-4.04719 0,-6.00601c-0.86715,-4.107 -2.21755,-7.89133 -3.003,-12.01201c-0.37486,-1.96659 0.41358,-4.04719 0,-6.00601c-0.32697,-1.54858 -1.19104,-2.95253 -1.5015,-4.5045c-0.17819,-0.89078 0.27774,-1.84393 0.05535,-2.72472c-0.27397,-1.0851 -1.23007,-1.91726 -1.5015,-3.003c-0.24278,-0.97111 0.22526,-2.02768 0,-3.003c-0.50369,-2.1809 -2.05239,-3.97959 -3.003,-6.00601c-0.03567,-1.30734 -0.07134,-2.61468 -0.107,-3.92201v-1.5015c0,0 0,-4 4,-4z" fill="#000000" stroke-width="0.5"/><path d="M177.69227,30.87432c3.57771,-1.78885 5.36656,1.78885 5.36656,1.78885l1.5015,3.003c0.6056,1.29095 1.45252,2.49422 1.81679,3.87285c0.44887,1.69882 0.33226,3.60051 1.18621,5.13616c0.6056,1.29095 1.47512,2.48845 1.81679,3.87285c0.69885,2.8316 -0.704,6.25803 0,9.00901c0.80148,3.1319 3.71311,5.80241 4.5045,9.00901c0.47971,1.94368 -0.52928,4.07524 0,6.00601c0.29588,1.07933 1.29166,1.9037 1.5015,3.003c0.65691,3.44137 -0.55374,7.05104 0,10.51051c0.4407,2.75326 2.51201,5.05153 3.05836,7.78579c0.23801,1.19115 0.11161,2.43051 0.05165,3.64373c-0.02474,0.50053 -0.56639,1.04501 -0.30448,1.47227c0.58645,0.95669 1.87167,1.30287 2.55245,2.1949c0.80862,1.05953 1.22283,2.36866 1.83424,3.55299c0,0 0.6402,1.28041 0.38864,2.69224c0.02125,0.19645 0.03215,0.39601 0.03215,0.59811c0,3.03757 -2.46243,5.5 -5.5,5.5c-3.03757,0 -5.5,-2.46243 -5.5,-5.5c0,-1.12225 0.33612,-2.16599 0.91317,-3.03605c-0.82037,-0.912 -1.61526,-1.83837 -2.11169,-2.94072c-0.94452,-2.09735 0.19888,-4.64059 -0.25283,-6.89601c-0.51105,-2.55168 -2.50814,-4.66425 -2.94765,-7.22922c-0.5917,-3.45318 0.72547,-7.08294 0,-10.51051c-0.23174,-1.0949 -1.24829,-1.91287 -1.5015,-3.003c-0.45296,-1.95009 0.49634,-4.06651 0,-6.00601c-0.80148,-3.1319 -3.71311,-5.80241 -4.5045,-9.00901c-0.99192,-4.01907 0.86955,-7.4453 -1.18621,-11.14217c-0.6056,-1.29095 -1.45252,-2.49422 -1.81679,-3.87285c-0.44887,-1.69882 -0.33226,-3.60051 -1.18621,-5.13616l-1.5015,-3.003c0,0 -1.78885,-3.57771 1.78885,-5.36656z" fill="#000000" stroke-width="0.5"/></g></g></svg>