<svg version="1.1" xmlns="http://www.w3.org/2000/svg" xmlns:xlink="http://www.w3.org/1999/xlink" width="209.07248" height="216.7286" viewBox="0,0,209.07248,216.7286"><g transform="translate(-75.10167,-20.25563)"><g data-paper-data="{&quot;isPaintingLayer&quot;:true}" fill-rule="nonzero" stroke-linejoin="miter" stroke-miterlimit="10" stroke-dasharray="" stroke-dashoffset="0" style="mix-blend-mode: normal"><path d="M172.09865,20.60591l37.8188,72.76496l-18.98602,9.02946l-37.7565,-70.52975z" fill="#541c1c" stroke="#000000" stroke-width="0.5" stroke-linecap="round"/><path d="M209.91745,91.86937l68.53394,138.6167l-38.70387,-25.68497l-48.34413,-103.02065z" fill="#ff0000" stroke="#636363" stroke-width="4.5" stroke-linecap="round"/><text transform="translate(75.5,117) scale(0.79665,1.62676)" font-size="40" xml:space="preserve" fill="#ff0000" fill-rule="nonzero" stroke="none" stroke-width="1" stroke-linecap="butt" stroke-linejoin="miter" stroke-miterlimit="10" stroke-dasharray="" stroke-dashoffset="0" font-family="Sans Serif" font-weight="normal" text-anchor="start" style="mix-blend-mode: normal"><tspan x="0" dy="0">slash</tspan></text><path d="M245.13397,87.15138l-68.01623,36.86986" fill="#544e4e" stroke="none" stroke-width="0" stroke-linecap="round"/><path d="M216.76866,138.60964c0,-0.13807 0.11193,-0.25 0.25,-0.25c0.13807,0 0.25,0.11193 0.25,0.25c0,0.13807 -0.11193,0.25 -0.25,0.25c-0.13807,0 -0.25,-0.11193 -0.25,-0.25z" fill="#000000" stroke="none" stroke-width="0.5" stroke-linecap="butt"/><path d="M226.27917,158.12916c0,-0.69036 0.55964,-1.25 1.25,-1.25c0.69036,0 1.25,0.55964 1.25,1.25c0,0.69036 -0.55964,1.25 -1.25,1.25c-0.69036,0 -1.25,-0.55964 -1.25,-1.25z" fill="#000000" stroke="none" stroke-width="0.5" stroke-linecap="butt"/><path d="M233.78668,152.12315c0,-0.69036 0.55964,-1.25 1.25,-1.25c0.69036,0 1.25,0.55964 1.25,1.25c0,0.69036 -0.55964,1.25 -1.25,1.25c-0.69036,0 -1.25,-0.55964 -1.25,-1.25z" fill="#000000" stroke="none" stroke-width="0.5" stroke-linecap="butt"/><path d="M245.56442,162.88529c1.24988,0.01724 1.23265,1.26712 1.23265,1.26712l-0.00947,0.68688c-0.11367,6.81338 -4.72234,12.40245 -11.75092,12.5579c0,0 -1.25,0 -1.25,-1.25c0,-1.25 1.25,-1.25 1.25,-1.25c1.35329,0.04116 2.69717,-0.59249 3.84393,-1.31223c3.96309,-2.48737 5.35506,-3.8399 5.40723,-8.78014l0.00947,-0.68688c0,0 0.01724,-1.24988 1.26712,-1.23265z" fill="#000000" stroke="none" stroke-width="0.5" stroke-linecap="butt"/><path d="M203.50665,117.58862c0,-0.82843 0.67157,-1.5 1.5,-1.5c0.82843,0 1.5,0.67157 1.5,1.5c0,0.82843 -0.67157,1.5 -1.5,1.5c-0.82843,0 -1.5,-0.67157 -1.5,-1.5z" fill="#828282" stroke="none" stroke-width="0.5" stroke-linecap="butt"/></g></g></svg>