<svg xmlns="http://www.w3.org/2000/svg" xmlns:xlink="http://www.w3.org/1999/xlink" version="1.1" width="593.5" height="372.5" viewBox="0,0,593.5,372.5"><g><g data-paper-data="{&quot;isPaintingLayer&quot;:true}" fill-rule="nonzero" stroke-linejoin="miter" stroke-miterlimit="10" stroke-dasharray="" stroke-dashoffset="0" style="mix-blend-mode: normal"><path d="M 0.25 372.25 L 0.25 0.25 L 593.25 0.25 L 593.25 372.25 Z " fill="#000000" stroke="#000000" stroke-width="0.5" stroke-linecap="butt"/><text transform="matrix(1.09924,0,0,1.36674,165.44443,138.68402)" font-size="40" xml:space="preserve" fill="#ff0000" fill-rule="nonzero" stroke="none" stroke-width="1" stroke-linecap="butt" stroke-linejoin="miter" stroke-miterlimit="10" stroke-dasharray="" stroke-dashoffset="0" font-family="Marker" font-weight="normal" text-anchor="start" style="mix-blend-mode: normal"><tspan x="0" dy="0">NITEMARE</tspan><tspan x="0" dy="46.150000000000006px">   SANS</tspan></text><text transform="matrix(0.5,0,0,0.5,219.44443,229.68402)" font-size="40" xml:space="preserve" fill="#ff0000" fill-rule="nonzero" stroke="none" stroke-width="1" stroke-linecap="butt" stroke-linejoin="miter" stroke-miterlimit="10" stroke-dasharray="" stroke-dashoffset="0" font-family="Marker" font-weight="normal" text-anchor="start" style="mix-blend-mode: normal"><tspan x="0" dy="0">IS COMING</tspan></text><text transform="matrix(0.34832,0,0,0.34832,249.44443,245.43402)" font-size="40" xml:space="preserve" fill="#ff0000" fill-rule="nonzero" stroke="none" stroke-width="1" stroke-linecap="butt" stroke-linejoin="miter" stroke-miterlimit="10" stroke-dasharray="" stroke-dashoffset="0" font-family="Marker" font-weight="normal" text-anchor="start" style="mix-blend-mode: normal"><tspan x="0" dy="0">SOON</tspan></text><path d="M 83.4444 181.684 L 96.4444 218.684 L 109.4444 184.684 L 123.4444 215.684 L 135.4444 186.684 L 146.4444 224.684 L 155.4444 187.684 L 167.4444 248.684 L 151.4444 218.684 L 140.4444 244.684 L 130.4444 208.684 L 123.4444 242.684 L 112.4444 214.684 L 97.4444 239.684 Z " fill="none" stroke="#ff0000" stroke-width="1.5" stroke-linecap="round"/><path d="M 71.4444 134.684 C 71.4444 120.8769 82.6373 109.684 96.4444 109.684 C 110.2515 109.684 121.4444 120.8769 121.4444 134.684 C 121.4444 148.4911 110.2515 159.684 96.4444 159.684 C 82.6373 159.684 71.4444 148.4911 71.4444 134.684 Z " fill="#ff0000" stroke="none" stroke-width="0.5" stroke-linecap="butt"/><path d="M 128.4444 132.684 C 128.4444 118.8769 139.6373 107.684 153.4444 107.684 C 167.2516 107.684 178.4444 118.8769 178.4444 132.684 C 178.4444 146.4911 167.2516 157.684 153.4444 157.684 C 139.6373 157.684 128.4444 146.4911 128.4444 132.684 Z " fill="#ff0000" stroke="none" stroke-width="0.5" stroke-linecap="butt"/><path d="M 134.6944 134.684 C 134.6944 124.3287 143.0891 115.934 153.4444 115.934 C 163.7998 115.934 172.1944 124.3287 172.1944 134.684 C 172.1944 145.0394 163.7998 153.434 153.4444 153.434 C 143.0891 153.434 134.6944 145.0394 134.6944 134.684 Z " fill="#000000" stroke="none" stroke-width="0.5" stroke-linecap="butt"/><path d="M 145.4444 153.684 L 153.4444 139.684 L 162.4444 151.684 " fill="none" stroke="#ff0000" stroke-width="1.5" stroke-linecap="round"/><path d="M 166.4444 140.684 L 167.4444 130.684 L 154.4444 141.684 L 152.4444 122.684 L 162.4444 135.684 Z " fill="none" stroke="#ff0000" stroke-width="1.5" stroke-linecap="round"/><path d="M 152.4444 124.684 L 147.4444 136.684 " fill="none" stroke="#ff0000" stroke-width="1.5" stroke-linecap="round"/><path d="M 159.4444 119.184 C 159.4444 121.7153 156.5343 123.7674 152.9444 123.7674 C 149.3546 123.7674 146.4444 121.7153 146.4444 119.184 C 146.4444 116.6527 149.3546 114.6007 152.9444 114.6007 C 156.5343 114.6007 159.4444 116.6527 159.4444 119.184 Z " fill="#ff0000" stroke="#ff0000" stroke-width="1.5" stroke-linecap="butt"/><text transform="matrix(0.5,0,0,0.5,193.44443,318.68402)" font-size="40" xml:space="preserve" fill="#ff0000" fill-rule="nonzero" stroke="none" stroke-width="1" stroke-linecap="butt" stroke-linejoin="miter" stroke-miterlimit="10" stroke-dasharray="" stroke-dashoffset="0" font-family="Marker" font-weight="normal" text-anchor="start" style="mix-blend-mode: normal"><tspan x="0" dy="0">prepare to have a nitemare</tspan><tspan x="0" dy="46.150000000000006px">chara/NITEMARE SANS</tspan></text><path d="M 164.4444 112.684 L 163.4444 87.684 L 158.4444 80.684 L 137.4444 62.684 L 154.4444 90.684 L 144.4444 111.684 Z " fill="#ff0000" stroke="#ff0000" stroke-width="2" stroke-linecap="round"/></g></g></svg>