<svg version="1.1" xmlns="http://www.w3.org/2000/svg" xmlns:xlink="http://www.w3.org/1999/xlink" width="284.26889" height="142.94108" viewBox="0,0,284.26889,142.94108"><g transform="translate(-151.58268,-79.43402)"><g data-paper-data="{&quot;isPaintingLayer&quot;:true}" fill-rule="nonzero" stroke-linejoin="miter" stroke-miterlimit="10" stroke-dasharray="" stroke-dashoffset="0" style="mix-blend-mode: normal"><path d="M173.69444,105.43402c0,-13.80712 11.19288,-25 25,-25c13.80712,0 25,11.19288 25,25c0,13.80712 -11.19288,25 -25,25c-13.80712,0 -25,-11.19288 -25,-25z" fill="#ff0000" stroke="none" stroke-width="0.5" stroke-linecap="butt"/><path d="M225.69444,104.43402c0,-13.80712 11.19288,-25 25,-25c13.80712,0 25,11.19288 25,25c0,13.80712 -11.19288,25 -25,25c-13.80712,0 -25,-11.19288 -25,-25z" fill="#ff0000" stroke="none" stroke-width="0.5" stroke-linecap="butt"/><text transform="translate(341.50001,154.93402) scale(0.5,0.5)" font-size="40" xml:space="preserve" fill="#ff0000" fill-rule="nonzero" stroke="none" stroke-width="1" stroke-linecap="butt" stroke-linejoin="miter" stroke-miterlimit="10" stroke-dasharray="" stroke-dashoffset="0" font-family="Marker" font-weight="normal" text-anchor="start" style="mix-blend-mode: normal"><tspan x="0" dy="0">NITEMARE</tspan><tspan x="0" dy="46.15px">LAUGH</tspan></text><path d="M157.5,150.93402l133,-4l-32,56l-31,15l-34,-13z" fill="#ff0000" stroke="#ff0000" stroke-width="4.5" stroke-linecap="round"/><path d="M190.5,205.93402l33,-58l35,55l35,-58l-138,2z" fill="none" stroke="#000000" stroke-width="4.5" stroke-linecap="round"/><path d="M189.5,205.93402l37,14l32,-15" fill="none" stroke="#000000" stroke-width="4.5" stroke-linecap="round"/></g></g></svg>