<svg version="1.1" xmlns="http://www.w3.org/2000/svg" xmlns:xlink="http://www.w3.org/1999/xlink" width="492.75877" height="425.59597" viewBox="0,0,492.75877,425.59597"><g transform="translate(-70.75014,6.23322)"><g data-paper-data="{&quot;isPaintingLayer&quot;:true}" fill-rule="nonzero" stroke-linejoin="miter" stroke-miterlimit="10" stroke-dasharray="" stroke-dashoffset="0" style="mix-blend-mode: normal"><path d="M399.37895,31.71168l-25.76777,68.30097l-13.02456,16.594l-34.83162,35.39433l32.10542,-77.06648l23.86867,3.90979" fill="none" stroke="#ff0000" stroke-width="2.5" stroke-linecap="round"/><path d="M396.44013,38.14311l-25.76777,68.30097l-13.02456,16.594l-34.83162,35.39433l32.10542,-77.06648l23.86867,3.90979" fill="none" stroke="#ff0000" stroke-width="2.5" stroke-linecap="round"/><path d="M393.50132,44.57455l-25.76777,68.30097l-13.02456,16.594l-34.83162,35.39433l32.10542,-77.06648l23.86867,3.90979" fill="none" stroke="#ff0000" stroke-width="2.5" stroke-linecap="round"/><path d="M390.56251,51.00599l-25.76777,68.30097l-13.02456,16.594l-34.83162,35.39433l32.10542,-77.06648l23.86867,3.90979" fill="none" stroke="#ff0000" stroke-width="2.5" stroke-linecap="round"/><path d="M387.62369,57.43742l-25.76777,68.30097l-13.02456,16.594l-34.83162,35.39433l32.10542,-77.06648l23.86867,3.90979" fill="none" stroke="#ff0000" stroke-width="2.5" stroke-linecap="round"/><path d="M384.68488,63.86886l-25.76777,68.30097l-13.02456,16.594l-34.83162,35.39433l32.10542,-77.06648l23.86867,3.90979" fill="none" stroke="#ff0000" stroke-width="2.5" stroke-linecap="round"/><path d="M381.74607,70.30029l-25.76777,68.30097l-13.02456,16.594l-34.83162,35.39433l32.10542,-77.06648l23.86867,3.90979" fill="none" stroke="#ff0000" stroke-width="2.5" stroke-linecap="round"/><path d="M378.80725,76.73173l-25.76777,68.30097l-13.02456,16.594l-34.83162,35.39433l32.10542,-77.06648l23.86867,3.90979" fill="none" stroke="#ff0000" stroke-width="2.5" stroke-linecap="round"/><path d="M375.86844,83.16317l-25.76777,68.30097l-13.02456,16.594l-34.83162,35.39433l32.10542,-77.06648l23.86867,3.90979" fill="none" stroke="#ff0000" stroke-width="2.5" stroke-linecap="round"/><path d="M372.92963,89.5946l-25.76777,68.30097l-13.02456,16.594l-34.83162,35.39433l32.10542,-77.06648l23.86867,3.90979" fill="none" stroke="#ff0000" stroke-width="2.5" stroke-linecap="round"/><path d="M369.99081,96.02604l-25.76777,68.30097l-13.02456,16.594l-34.83162,35.39433l32.10542,-77.06648l23.86867,3.90979" fill="none" stroke="#ff0000" stroke-width="2.5" stroke-linecap="round"/><path d="M367.052,102.45748l-25.76777,68.30097l-13.02456,16.594l-34.83162,35.39433l32.10542,-77.06648l23.86867,3.90979" fill="none" stroke="#ff0000" stroke-width="2.5" stroke-linecap="round"/><path d="M364.11319,108.88891l-25.76777,68.30097l-13.02456,16.594l-34.83162,35.39433l32.10542,-77.06648l23.86867,3.90979" fill="none" stroke="#ff0000" stroke-width="2.5" stroke-linecap="round"/><path d="M361.17437,115.32035l-25.76777,68.30097l-13.02456,16.594l-34.83162,35.39433l32.10542,-77.06648l23.86867,3.90979" fill="none" stroke="#ff0000" stroke-width="2.5" stroke-linecap="round"/><path d="M358.23556,121.75179l-25.76777,68.30097l-13.02456,16.594l-34.83162,35.39433l32.10542,-77.06648l23.86867,3.90979" fill="none" stroke="#ff0000" stroke-width="2.5" stroke-linecap="round"/><path d="M355.29675,128.18322l-25.76777,68.30097l-13.02456,16.594l-34.83162,35.39433l32.10542,-77.06648l23.86867,3.90979" fill="none" stroke="#ff0000" stroke-width="2.5" stroke-linecap="round"/><path d="M352.35794,134.61466l-25.76777,68.30097l-13.02456,16.594l-34.83162,35.39433l32.10542,-77.06648l23.86867,3.90979" fill="none" stroke="#ff0000" stroke-width="2.5" stroke-linecap="round"/><path d="M349.41912,141.0461l-25.76777,68.30097l-13.02456,16.594l-34.83162,35.39433l32.10542,-77.06648l23.86867,3.90979" fill="none" stroke="#ff0000" stroke-width="2.5" stroke-linecap="round"/><path d="M346.48031,147.47753l-25.76777,68.30097l-13.02456,16.594l-34.83162,35.39433l32.10542,-77.06648l23.86867,3.90979" fill="none" stroke="#ff0000" stroke-width="2.5" stroke-linecap="round"/><path d="M343.5415,153.90897l-25.76777,68.30097l-13.02456,16.594l-34.83162,35.39433l32.10542,-77.06648l23.86867,3.90979" fill="none" stroke="#ff0000" stroke-width="2.5" stroke-linecap="round"/><path d="M396.44013,38.14311l-25.76777,68.30097l-13.02456,16.594l-34.83162,35.39433l32.10542,-77.06648l23.86867,3.90979" fill="none" stroke="#ff0000" stroke-width="2.5" stroke-linecap="round"/><path d="M393.50132,44.57455l-25.76777,68.30097l-13.02456,16.594l-34.83162,35.39433l32.10542,-77.06648l23.86867,3.90979" fill="none" stroke="#ff0000" stroke-width="2.5" stroke-linecap="round"/><path d="M390.56251,51.00599l-25.76777,68.30097l-13.02456,16.594l-34.83162,35.39433l32.10542,-77.06648l23.86867,3.90979" fill="none" stroke="#ff0000" stroke-width="2.5" stroke-linecap="round"/><path d="M387.62369,57.43742l-25.76777,68.30097l-13.02456,16.594l-34.83162,35.39433l32.10542,-77.06648l23.86867,3.90979" fill="none" stroke="#ff0000" stroke-width="2.5" stroke-linecap="round"/><path d="M384.68488,63.86886l-25.76777,68.30097l-13.02456,16.594l-34.83162,35.39433l32.10542,-77.06648l23.86867,3.90979" fill="none" stroke="#ff0000" stroke-width="2.5" stroke-linecap="round"/><path d="M381.74607,70.30029l-25.76777,68.30097l-13.02456,16.594l-34.83162,35.39433l32.10542,-77.06648l23.86867,3.90979" fill="none" stroke="#ff0000" stroke-width="2.5" stroke-linecap="round"/><path d="M378.80725,76.73173l-25.76777,68.30097l-13.02456,16.594l-34.83162,35.39433l32.10542,-77.06648l23.86867,3.90979" fill="none" stroke="#ff0000" stroke-width="2.5" stroke-linecap="round"/><path d="M375.86844,83.16317l-25.76777,68.30097l-13.02456,16.594l-34.83162,35.39433l32.10542,-77.06648l23.86867,3.90979" fill="none" stroke="#ff0000" stroke-width="2.5" stroke-linecap="round"/><path d="M372.92963,89.5946l-25.76777,68.30097l-13.02456,16.594l-34.83162,35.39433l32.10542,-77.06648l23.86867,3.90979" fill="none" stroke="#ff0000" stroke-width="2.5" stroke-linecap="round"/><path d="M369.99081,96.02604l-25.76777,68.30097l-13.02456,16.594l-34.83162,35.39433l32.10542,-77.06648l23.86867,3.90979" fill="none" stroke="#ff0000" stroke-width="2.5" stroke-linecap="round"/><path d="M367.052,102.45748l-25.76777,68.30097l-13.02456,16.594l-34.83162,35.39433l32.10542,-77.06648l23.86867,3.90979" fill="none" stroke="#ff0000" stroke-width="2.5" stroke-linecap="round"/><path d="M364.11319,108.88891l-25.76777,68.30097l-13.02456,16.594l-34.83162,35.39433l32.10542,-77.06648l23.86867,3.90979" fill="none" stroke="#ff0000" stroke-width="2.5" stroke-linecap="round"/><path d="M361.17437,115.32035l-25.76777,68.30097l-13.02456,16.594l-34.83162,35.39433l32.10542,-77.06648l23.86867,3.90979" fill="none" stroke="#ff0000" stroke-width="2.5" stroke-linecap="round"/><path d="M358.23556,121.75179l-25.76777,68.30097l-13.02456,16.594l-34.83162,35.39433l32.10542,-77.06648l23.86867,3.90979" fill="none" stroke="#ff0000" stroke-width="2.5" stroke-linecap="round"/><path d="M355.29675,128.18322l-25.76777,68.30097l-13.02456,16.594l-34.83162,35.39433l32.10542,-77.06648l23.86867,3.90979" fill="none" stroke="#ff0000" stroke-width="2.5" stroke-linecap="round"/><path d="M352.35794,134.61466l-25.76777,68.30097l-13.02456,16.594l-34.83162,35.39433l32.10542,-77.06648l23.86867,3.90979" fill="none" stroke="#ff0000" stroke-width="2.5" stroke-linecap="round"/><path d="M349.41912,141.0461l-25.76777,68.30097l-13.02456,16.594l-34.83162,35.39433l32.10542,-77.06648l23.86867,3.90979" fill="none" stroke="#ff0000" stroke-width="2.5" stroke-linecap="round"/><path d="M346.48031,147.47753l-25.76777,68.30097l-13.02456,16.594l-34.83162,35.39433l32.10542,-77.06648l23.86867,3.90979" fill="none" stroke="#ff0000" stroke-width="2.5" stroke-linecap="round"/><path d="M343.5415,153.90897l-25.76777,68.30097l-13.02456,16.594l-34.83162,35.39433l32.10542,-77.06648l23.86867,3.90979" fill="none" stroke="#ff0000" stroke-width="2.5" stroke-linecap="round"/><path d="M340.60268,160.34041l-25.76777,68.30097l-13.02456,16.594l-34.83162,35.39433l32.10542,-77.06648l23.86867,3.90979" fill="none" stroke="#ff0000" stroke-width="2.5" stroke-linecap="round"/><path d="M393.50132,44.57455l-25.76777,68.30097l-13.02456,16.594l-34.83162,35.39433l32.10542,-77.06648l23.86867,3.90979" fill="none" stroke="#ff0000" stroke-width="2.5" stroke-linecap="round"/><path d="M390.56251,51.00599l-25.76777,68.30097l-13.02456,16.594l-34.83162,35.39433l32.10542,-77.06648l23.86867,3.90979" fill="none" stroke="#ff0000" stroke-width="2.5" stroke-linecap="round"/><path d="M387.62369,57.43742l-25.76777,68.30097l-13.02456,16.594l-34.83162,35.39433l32.10542,-77.06648l23.86867,3.90979" fill="none" stroke="#ff0000" stroke-width="2.5" stroke-linecap="round"/><path d="M384.68488,63.86886l-25.76777,68.30097l-13.02456,16.594l-34.83162,35.39433l32.10542,-77.06648l23.86867,3.90979" fill="none" stroke="#ff0000" stroke-width="2.5" stroke-linecap="round"/><path d="M381.74607,70.30029l-25.76777,68.30097l-13.02456,16.594l-34.83162,35.39433l32.10542,-77.06648l23.86867,3.90979" fill="none" stroke="#ff0000" stroke-width="2.5" stroke-linecap="round"/><path d="M378.80725,76.73173l-25.76777,68.30097l-13.02456,16.594l-34.83162,35.39433l32.10542,-77.06648l23.86867,3.90979" fill="none" stroke="#ff0000" stroke-width="2.5" stroke-linecap="round"/><path d="M375.86844,83.16317l-25.76777,68.30097l-13.02456,16.594l-34.83162,35.39433l32.10542,-77.06648l23.86867,3.90979" fill="none" stroke="#ff0000" stroke-width="2.5" stroke-linecap="round"/><path d="M372.92963,89.5946l-25.76777,68.30097l-13.02456,16.594l-34.83162,35.39433l32.10542,-77.06648l23.86867,3.90979" fill="none" stroke="#ff0000" stroke-width="2.5" stroke-linecap="round"/><path d="M369.99081,96.02604l-25.76777,68.30097l-13.02456,16.594l-34.83162,35.39433l32.10542,-77.06648l23.86867,3.90979" fill="none" stroke="#ff0000" stroke-width="2.5" stroke-linecap="round"/><path d="M367.052,102.45748l-25.76777,68.30097l-13.02456,16.594l-34.83162,35.39433l32.10542,-77.06648l23.86867,3.90979" fill="none" stroke="#ff0000" stroke-width="2.5" stroke-linecap="round"/><path d="M364.11319,108.88891l-25.76777,68.30097l-13.02456,16.594l-34.83162,35.39433l32.10542,-77.06648l23.86867,3.90979" fill="none" stroke="#ff0000" stroke-width="2.5" stroke-linecap="round"/><path d="M361.17437,115.32035l-25.76777,68.30097l-13.02456,16.594l-34.83162,35.39433l32.10542,-77.06648l23.86867,3.90979" fill="none" stroke="#ff0000" stroke-width="2.5" stroke-linecap="round"/><path d="M358.23556,121.75179l-25.76777,68.30097l-13.02456,16.594l-34.83162,35.39433l32.10542,-77.06648l23.86867,3.90979" fill="none" stroke="#ff0000" stroke-width="2.5" stroke-linecap="round"/><path d="M355.29675,128.18322l-25.76777,68.30097l-13.02456,16.594l-34.83162,35.39433l32.10542,-77.06648l23.86867,3.90979" fill="none" stroke="#ff0000" stroke-width="2.5" stroke-linecap="round"/><path d="M352.35794,134.61466l-25.76777,68.30097l-13.02456,16.594l-34.83162,35.39433l32.10542,-77.06648l23.86867,3.90979" fill="none" stroke="#ff0000" stroke-width="2.5" stroke-linecap="round"/><path d="M349.41912,141.0461l-25.76777,68.30097l-13.02456,16.594l-34.83162,35.39433l32.10542,-77.06648l23.86867,3.90979" fill="none" stroke="#ff0000" stroke-width="2.5" stroke-linecap="round"/><path d="M346.48031,147.47753l-25.76777,68.30097l-13.02456,16.594l-34.83162,35.39433l32.10542,-77.06648l23.86867,3.90979" fill="none" stroke="#ff0000" stroke-width="2.5" stroke-linecap="round"/><path d="M343.5415,153.90897l-25.76777,68.30097l-13.02456,16.594l-34.83162,35.39433l32.10542,-77.06648l23.86867,3.90979" fill="none" stroke="#ff0000" stroke-width="2.5" stroke-linecap="round"/><path d="M340.60268,160.34041l-25.76777,68.30097l-13.02456,16.594l-34.83162,35.39433l32.10542,-77.06648l23.86867,3.90979" fill="none" stroke="#ff0000" stroke-width="2.5" stroke-linecap="round"/><path d="M337.66387,166.77184l-25.76777,68.30097l-13.02456,16.594l-34.83162,35.39433l32.10542,-77.06648l23.86867,3.90979" fill="none" stroke="#ff0000" stroke-width="2.5" stroke-linecap="round"/><path d="M225.14084,-4.98322l9.20177,72.41773l-3.74171,20.76053l-14.21147,47.58187l-7.70455,-83.13026l22.92229,-7.71808" fill="none" stroke="#ff0000" stroke-width="2.5" stroke-linecap="round"/><path d="M225.55448,2.07574l9.20177,72.41773l-3.74171,20.76053l-14.21147,47.58187l-7.70455,-83.13026l22.92229,-7.71808" fill="none" stroke="#ff0000" stroke-width="2.5" stroke-linecap="round"/><path d="M225.96812,9.1347l9.20177,72.41773l-3.74171,20.76053l-14.21147,47.58187l-7.70455,-83.13026l22.92229,-7.71808" fill="none" stroke="#ff0000" stroke-width="2.5" stroke-linecap="round"/><path d="M226.38176,16.19366l9.20177,72.41773l-3.74171,20.76053l-14.21147,47.58187l-7.70455,-83.13026l22.92229,-7.71808" fill="none" stroke="#ff0000" stroke-width="2.5" stroke-linecap="round"/><path d="M226.7954,23.25262l9.20177,72.41773l-3.74171,20.76053l-14.21147,47.58187l-7.70455,-83.13026l22.92229,-7.71808" fill="none" stroke="#ff0000" stroke-width="2.5" stroke-linecap="round"/><path d="M227.20904,30.31158l9.20177,72.41773l-3.74171,20.76053l-14.21147,47.58187l-7.70455,-83.13026l22.92229,-7.71808" fill="none" stroke="#ff0000" stroke-width="2.5" stroke-linecap="round"/><path d="M227.62268,37.37054l9.20177,72.41773l-3.74171,20.76053l-14.21147,47.58187l-7.70455,-83.13026l22.92229,-7.71808" fill="none" stroke="#ff0000" stroke-width="2.5" stroke-linecap="round"/><path d="M228.03632,44.42949l9.20177,72.41773l-3.74171,20.76053l-14.21147,47.58187l-7.70455,-83.13026l22.92229,-7.71808" fill="none" stroke="#ff0000" stroke-width="2.5" stroke-linecap="round"/><path d="M228.44996,51.48845l9.20177,72.41773l-3.74171,20.76053l-14.21147,47.58187l-7.70455,-83.13026l22.92229,-7.71808" fill="none" stroke="#ff0000" stroke-width="2.5" stroke-linecap="round"/><path d="M228.86361,58.54741l9.20177,72.41773l-3.74171,20.76053l-14.21147,47.58187l-7.70455,-83.13026l22.92229,-7.71808" fill="none" stroke="#ff0000" stroke-width="2.5" stroke-linecap="round"/><path d="M229.27725,65.60637l9.20177,72.41773l-3.74171,20.76053l-14.21147,47.58187l-7.70455,-83.13026l22.92229,-7.71808" fill="none" stroke="#ff0000" stroke-width="2.5" stroke-linecap="round"/><path d="M229.69089,72.66533l9.20177,72.41773l-3.74171,20.76053l-14.21147,47.58187l-7.70455,-83.13026l22.92229,-7.71808" fill="none" stroke="#ff0000" stroke-width="2.5" stroke-linecap="round"/><path d="M230.10453,79.72429l9.20177,72.41773l-3.74171,20.76053l-14.21147,47.58187l-7.70455,-83.13026l22.92229,-7.71808" fill="none" stroke="#ff0000" stroke-width="2.5" stroke-linecap="round"/><path d="M230.51817,86.78325l9.20177,72.41773l-3.74171,20.76053l-14.21147,47.58187l-7.70455,-83.13026l22.92229,-7.71808" fill="none" stroke="#ff0000" stroke-width="2.5" stroke-linecap="round"/><path d="M230.93181,93.84221l9.20177,72.41773l-3.74171,20.76053l-14.21147,47.58187l-7.70455,-83.13026l22.92229,-7.71808" fill="none" stroke="#ff0000" stroke-width="2.5" stroke-linecap="round"/><path d="M231.34545,100.90117l9.20177,72.41773l-3.74171,20.76053l-14.21147,47.58187l-7.70455,-83.13026l22.92229,-7.71808" fill="none" stroke="#ff0000" stroke-width="2.5" stroke-linecap="round"/><path d="M231.75909,107.96013l9.20177,72.41773l-3.74171,20.76053l-14.21147,47.58187l-7.70455,-83.13026l22.92229,-7.71808" fill="none" stroke="#ff0000" stroke-width="2.5" stroke-linecap="round"/><path d="M232.17273,115.01908l9.20177,72.41773l-3.74171,20.76053l-14.21147,47.58187l-7.70455,-83.13026l22.92229,-7.71808" fill="none" stroke="#ff0000" stroke-width="2.5" stroke-linecap="round"/><path d="M232.58637,122.07804l9.20177,72.41773l-3.74171,20.76053l-14.21147,47.58187l-7.70455,-83.13026l22.92229,-7.71808" fill="none" stroke="#ff0000" stroke-width="2.5" stroke-linecap="round"/><path d="M233.00002,129.137l9.20177,72.41773l-3.74171,20.76053l-14.21147,47.58187l-7.70455,-83.13026l22.92229,-7.71808" fill="none" stroke="#ff0000" stroke-width="2.5" stroke-linecap="round"/><path d="M72.00014,45.61784l40.92584,60.44895l6.04103,20.21153l8.81789,48.86967l-44.42979,-70.68234l16.96283,-17.24129" fill="none" stroke="#ff0000" stroke-width="2.5" stroke-linecap="round"/><path d="M75.55823,51.72848l40.92584,60.44895l6.04103,20.21153l8.81789,48.86967l-44.42979,-70.68234l16.96283,-17.24129" fill="none" stroke="#ff0000" stroke-width="2.5" stroke-linecap="round"/><path d="M79.11633,57.83912l40.92584,60.44895l6.04103,20.21153l8.81789,48.86967l-44.42979,-70.68234l16.96283,-17.24129" fill="none" stroke="#ff0000" stroke-width="2.5" stroke-linecap="round"/><path d="M82.67442,63.94977l40.92584,60.44895l6.04103,20.21153l8.81789,48.86967l-44.42979,-70.68234l16.96283,-17.24129" fill="none" stroke="#ff0000" stroke-width="2.5" stroke-linecap="round"/><path d="M86.23252,70.06041l40.92584,60.44895l6.04103,20.21153l8.81789,48.86967l-44.42979,-70.68234l16.96283,-17.24129" fill="none" stroke="#ff0000" stroke-width="2.5" stroke-linecap="round"/><path d="M89.79062,76.17105l40.92584,60.44895l6.04103,20.21153l8.81789,48.86967l-44.42979,-70.68234l16.96283,-17.24129" fill="none" stroke="#ff0000" stroke-width="2.5" stroke-linecap="round"/><path d="M93.34871,82.28169l40.92584,60.44895l6.04103,20.21153l8.81789,48.86967l-44.42979,-70.68234l16.96283,-17.24129" fill="none" stroke="#ff0000" stroke-width="2.5" stroke-linecap="round"/><path d="M96.90681,88.39234l40.92584,60.44895l6.04103,20.21153l8.81789,48.86967l-44.42979,-70.68234l16.96283,-17.24129" fill="none" stroke="#ff0000" stroke-width="2.5" stroke-linecap="round"/><path d="M100.4649,94.50298l40.92584,60.44895l6.04103,20.21153l8.81789,48.86967l-44.42979,-70.68234l16.96283,-17.24129" fill="none" stroke="#ff0000" stroke-width="2.5" stroke-linecap="round"/><path d="M104.023,100.61362l40.92584,60.44895l6.04103,20.21153l8.81789,48.86967l-44.42979,-70.68234l16.96283,-17.24129" fill="none" stroke="#ff0000" stroke-width="2.5" stroke-linecap="round"/><path d="M107.58109,106.72426l40.92584,60.44895l6.04103,20.21153l8.81789,48.86967l-44.42979,-70.68234l16.96283,-17.24129" fill="none" stroke="#ff0000" stroke-width="2.5" stroke-linecap="round"/><path d="M111.13919,112.83491l40.92584,60.44895l6.04103,20.21153l8.81789,48.86967l-44.42979,-70.68234l16.96283,-17.24129" fill="none" stroke="#ff0000" stroke-width="2.5" stroke-linecap="round"/><path d="M114.69729,118.94555l40.92584,60.44895l6.04103,20.21153l8.81789,48.86967l-44.42979,-70.68234l16.96283,-17.24129" fill="none" stroke="#ff0000" stroke-width="2.5" stroke-linecap="round"/><path d="M118.25538,125.05619l40.92584,60.44895l6.04103,20.21153l8.81789,48.86967l-44.42979,-70.68234l16.96283,-17.24129" fill="none" stroke="#ff0000" stroke-width="2.5" stroke-linecap="round"/><path d="M121.81348,131.16683l40.92584,60.44895l6.04103,20.21153l8.81789,48.86967l-44.42979,-70.68234l16.96283,-17.24129" fill="none" stroke="#ff0000" stroke-width="2.5" stroke-linecap="round"/><path d="M125.37157,137.27748l40.92584,60.44895l6.04103,20.21153l8.81789,48.86967l-44.42979,-70.68234l16.96283,-17.24129" fill="none" stroke="#ff0000" stroke-width="2.5" stroke-linecap="round"/><path d="M128.92967,143.38812l40.92584,60.44895l6.04103,20.21153l8.81789,48.86967l-44.42979,-70.68234l16.96283,-17.24129" fill="none" stroke="#ff0000" stroke-width="2.5" stroke-linecap="round"/><path d="M132.48777,149.49876l40.92584,60.44895l6.04103,20.21153l8.81789,48.86967l-44.42979,-70.68234l16.96283,-17.24129" fill="none" stroke="#ff0000" stroke-width="2.5" stroke-linecap="round"/><path d="M136.04586,155.60941l40.92584,60.44895l6.04103,20.21153l8.81789,48.86967l-44.42979,-70.68234l16.96283,-17.24129" fill="none" stroke="#ff0000" stroke-width="2.5" stroke-linecap="round"/><path d="M139.60396,161.72005l40.92584,60.44895l6.04103,20.21153l8.81789,48.86967l-44.42979,-70.68234l16.96283,-17.24129" fill="none" stroke="#ff0000" stroke-width="2.5" stroke-linecap="round"/><path d="M116.94358,30.76893c0,-13.80712 11.19288,-25 25,-25c13.80712,0 25,11.19288 25,25c0,13.80712 -11.19288,25 -25,25c-13.80712,0 -25,-11.19288 -25,-25z" fill="#ff0000" stroke="none" stroke-width="0.5" stroke-linecap="butt"/><path d="M274.60124,27.76593c0,-13.80712 11.19288,-25 25,-25c13.80712,0 25,11.19288 25,25c0,13.80712 -11.19288,25 -25,25c-13.80712,0 -25,-11.19288 -25,-25z" fill="#ff0000" stroke="none" stroke-width="0.5" stroke-linecap="butt"/><path d="M210.11135,408.60214l1.54328,-72.98369l6.75278,-19.98499l21.05142,-44.97596l-4.59894,83.35976l-23.80781,4.26476" fill="none" stroke="#ff0000" stroke-width="2.5" stroke-linecap="round"/><path d="M331.9249,368.41839l-22.6794,-8.40504l10.20509,-82.86046l12.77177,47.98835l3.11467,20.86381l-11.37896,72.1077" data-paper-data="{&quot;index&quot;:null}" fill="none" stroke="#ff0000" stroke-width="2.5" stroke-linecap="round"/><path d="M292.95966,358.61117l-23.48653,-5.77781l0.73873,-83.48326l18.13356,46.22958l5.46155,20.37576l-3.12492,72.93309" data-paper-data="{&quot;index&quot;:null}" fill="none" stroke="#ff0000" stroke-width="2.5" stroke-linecap="round"/><path d="M164.57755,407.57561l-1.12374,-72.99135l6.01825,-20.21832l19.39447,-45.71493l-1.55086,83.47212l-23.63614,5.13158" fill="none" stroke="#ff0000" stroke-width="2.5" stroke-linecap="round"/><path d="M145.29802,410.61747l-14.80838,-71.48225l2.11509,-20.98872l10.46625,-48.54336l14.14919,82.2788l-22.25229,9.47816" fill="none" stroke="#ff0000" stroke-width="2.5" stroke-linecap="round"/><text transform="translate(245.54842,228.62779) scale(0.88219,2.84315)" font-size="40" xml:space="preserve" fill="#b50000" fill-rule="nonzero" stroke="none" stroke-width="1" stroke-linecap="butt" stroke-linejoin="miter" stroke-miterlimit="10" stroke-dasharray="" stroke-dashoffset="0" font-family="Marker" font-weight="normal" text-anchor="start" style="mix-blend-mode: normal"><tspan x="0" dy="0">NIGHTMARE CHOMP</tspan></text></g></g></svg>